<mxfile host="app.diagrams.net" modified="2020-07-08T18:57:58.517Z" agent="5.0 (Windows)" etag="QtX50GYPtvbpAKfFcOz9" version="13.4.0" type="github">
  <diagram name="Page-1" id="7a6c530e-6e37-e111-ec74-82921da8cc10">
    <mxGraphModel dx="1034" dy="577" grid="1" gridSize="10" guides="1" tooltips="1" connect="1" arrows="1" fold="1" page="1" pageScale="1.5" pageWidth="1169" pageHeight="826" background="#000000" math="0" shadow="0">
      <root>
        <mxCell id="0" style=";html=1;" />
        <mxCell id="1" style=";html=1;" parent="0" />
        <mxCell id="h21AeX88V2tO6TACi44t-49" value="" style="label;whiteSpace=wrap;html=1;arcSize=16;strokeColor=#6c8ebf;fillColor=#0066CC;gradientColor=#3399FF;" parent="1" vertex="1">
          <mxGeometry x="213" y="2030" width="1260" height="120" as="geometry" />
        </mxCell>
        <mxCell id="23046e2b9bb16c14-84" value="" style="rounded=0;whiteSpace=wrap;html=1;shadow=0;strokeWidth=2;fontSize=12;align=center;strokeColor=#006EAF;arcSize=6;verticalAlign=top;fontColor=#ffffff;fillColor=#009BFF;" parent="1" vertex="1">
          <mxGeometry x="150" y="2192" width="300" height="102" as="geometry" />
        </mxCell>
        <mxCell id="23046e2b9bb16c14-85" value="" style="rounded=0;whiteSpace=wrap;html=1;shadow=0;strokeWidth=2;fontSize=12;fontColor=#FFFFFF;align=center;strokeColor=none;arcSize=6;verticalAlign=top;fillColor=#8BC63E;" parent="1" vertex="1">
          <mxGeometry x="450" y="2192" width="400" height="102" as="geometry" />
        </mxCell>
        <mxCell id="23046e2b9bb16c14-86" value="" style="rounded=0;whiteSpace=wrap;html=1;shadow=0;strokeWidth=2;fontSize=12;align=center;arcSize=3;verticalAlign=top;fillColor=#EA6B66;strokeColor=#EA6B66;" parent="1" vertex="1">
          <mxGeometry x="850" y="2192" width="850" height="102" as="geometry" />
        </mxCell>
        <mxCell id="23046e2b9bb16c14-87" value="A" style="text;html=1;strokeColor=none;fillColor=none;align=center;verticalAlign=middle;whiteSpace=wrap;rounded=1;shadow=0;fontSize=30;fontColor=#FFFFFF;fontStyle=1" parent="1" vertex="1">
          <mxGeometry x="150" y="2225" width="40" height="35" as="geometry" />
        </mxCell>
        <mxCell id="23046e2b9bb16c14-88" value="B" style="text;html=1;strokeColor=none;fillColor=none;align=center;verticalAlign=middle;whiteSpace=wrap;rounded=1;shadow=0;fontSize=30;fontColor=#FFFFFF;fontStyle=1" parent="1" vertex="1">
          <mxGeometry x="450" y="2225" width="40" height="35" as="geometry" />
        </mxCell>
        <mxCell id="23046e2b9bb16c14-89" value="C" style="text;html=1;strokeColor=none;fillColor=none;align=center;verticalAlign=middle;whiteSpace=wrap;rounded=1;shadow=0;fontSize=30;fontColor=#FFFFFF;fontStyle=1" parent="1" vertex="1">
          <mxGeometry x="850" y="2225" width="40" height="35" as="geometry" />
        </mxCell>
        <mxCell id="23046e2b9bb16c14-91" value="&lt;div&gt;SAS&lt;/div&gt;&lt;div&gt;HDD&lt;/div&gt;" style="shadow=0;html=1;strokeColor=none;fillColor=#FFFFFF;labelPosition=center;verticalLabelPosition=top;verticalAlign=bottom;shape=mxgraph.azure.vhd;rounded=0;fontSize=10;fontColor=#FFFFFF;align=center;" parent="1" vertex="1">
          <mxGeometry x="307" y="2229" width="40" height="50" as="geometry" />
        </mxCell>
        <mxCell id="23046e2b9bb16c14-92" value="+" style="text;html=1;strokeColor=none;fillColor=none;align=center;verticalAlign=middle;whiteSpace=wrap;rounded=1;shadow=0;fontSize=30;fontColor=#FFFFFF;fontStyle=1" parent="1" vertex="1">
          <mxGeometry x="260.5" y="2234" width="40" height="35" as="geometry" />
        </mxCell>
        <mxCell id="23046e2b9bb16c14-93" value="+" style="text;html=1;strokeColor=none;fillColor=none;align=center;verticalAlign=middle;whiteSpace=wrap;rounded=1;shadow=0;fontSize=30;fontColor=#FFFFFF;fontStyle=1" parent="1" vertex="1">
          <mxGeometry x="347" y="2237" width="40" height="35" as="geometry" />
        </mxCell>
        <mxCell id="23046e2b9bb16c14-95" value="HYPERVISOR" style="shadow=0;html=1;strokeColor=none;fillColor=#FFFFFF;labelPosition=center;verticalLabelPosition=top;verticalAlign=bottom;shape=mxgraph.azure.virtual_machine_feature;rounded=0;fontSize=10;fontColor=#FFFFFF;align=center;" parent="1" vertex="1">
          <mxGeometry x="508" y="2233" width="50" height="45" as="geometry" />
        </mxCell>
        <mxCell id="23046e2b9bb16c14-96" value="+" style="text;html=1;strokeColor=none;fillColor=none;align=center;verticalAlign=middle;whiteSpace=wrap;rounded=1;shadow=0;fontSize=30;fontColor=#FFFFFF;fontStyle=1" parent="1" vertex="1">
          <mxGeometry x="558" y="2238" width="40" height="35" as="geometry" />
        </mxCell>
        <mxCell id="23046e2b9bb16c14-97" value="VHD" style="shadow=0;html=1;strokeColor=none;fillColor=#FFFFFF;labelPosition=center;verticalLabelPosition=top;verticalAlign=bottom;shape=mxgraph.azure.vhd;rounded=0;fontSize=10;fontColor=#FFFFFF;align=center;" parent="1" vertex="1">
          <mxGeometry x="680" y="2231" width="40" height="50" as="geometry" />
        </mxCell>
        <mxCell id="23046e2b9bb16c14-99" value="+" style="text;html=1;strokeColor=none;fillColor=none;align=center;verticalAlign=middle;whiteSpace=wrap;rounded=1;shadow=0;fontSize=30;fontColor=#FFFFFF;fontStyle=1" parent="1" vertex="1">
          <mxGeometry x="640" y="2237" width="40" height="35" as="geometry" />
        </mxCell>
        <mxCell id="23046e2b9bb16c14-100" value="+" style="text;html=1;strokeColor=none;fillColor=none;align=center;verticalAlign=middle;whiteSpace=wrap;rounded=1;shadow=0;fontSize=30;fontColor=#FFFFFF;fontStyle=1" parent="1" vertex="1">
          <mxGeometry x="720" y="2234" width="40" height="35" as="geometry" />
        </mxCell>
        <mxCell id="23046e2b9bb16c14-103" value="" style="line;strokeWidth=2;direction=south;html=1;rounded=0;shadow=0;fillColor=none;fontSize=30;fontColor=#FFFFFF;align=center;strokeColor=#FFFFFF;" parent="1" vertex="1">
          <mxGeometry x="190" y="2192" width="10" height="102" as="geometry" />
        </mxCell>
        <mxCell id="23046e2b9bb16c14-104" value="" style="line;strokeWidth=2;direction=south;html=1;rounded=0;shadow=0;fillColor=none;fontSize=30;fontColor=#FFFFFF;align=center;strokeColor=#FFFFFF;" parent="1" vertex="1">
          <mxGeometry x="490" y="2192" width="10" height="102" as="geometry" />
        </mxCell>
        <mxCell id="23046e2b9bb16c14-105" value="" style="line;strokeWidth=2;direction=south;html=1;rounded=0;shadow=0;fillColor=none;fontSize=30;fontColor=#FFFFFF;align=center;strokeColor=#FFFFFF;" parent="1" vertex="1">
          <mxGeometry x="890" y="2192" width="10" height="102" as="geometry" />
        </mxCell>
        <mxCell id="23046e2b9bb16c14-107" value="WEB SERVER" style="verticalLabelPosition=top;html=1;verticalAlign=bottom;strokeColor=none;fillColor=#FFFFFF;shape=mxgraph.azure.azure_website;rounded=0;shadow=1;fontSize=10;fontColor=#FFFFFF;align=center;labelPosition=center;" parent="1" vertex="1">
          <mxGeometry x="1010" y="2234.75" width="40" height="42" as="geometry" />
        </mxCell>
        <mxCell id="23046e2b9bb16c14-113" value="SERVIDORES DHAPSA" style="text;strokeColor=none;fillColor=none;html=1;fontSize=24;fontStyle=1;verticalAlign=middle;align=center;rounded=0;shadow=0;fontColor=#FFFFFF;" parent="1" vertex="1">
          <mxGeometry x="120" y="40" width="1510" height="40" as="geometry" />
        </mxCell>
        <mxCell id="23046e2b9bb16c14-114" value="&lt;div&gt;&lt;br&gt;&lt;/div&gt;&lt;div&gt;&lt;br&gt;&lt;/div&gt;" style="text;html=1;strokeColor=none;fillColor=none;align=center;verticalAlign=middle;whiteSpace=wrap;rounded=0;shadow=0;fontSize=10;fontColor=#009BFF;" parent="1" vertex="1">
          <mxGeometry x="114" y="90" width="1526" height="20" as="geometry" />
        </mxCell>
        <mxCell id="h21AeX88V2tO6TACi44t-1" value="&lt;div&gt;Windows 2016 SERVER DATACENTER&lt;/div&gt;&lt;div&gt;DHAP-SERVER&lt;/div&gt;&lt;div&gt;DELL POWEREDGE T320&lt;br&gt;&lt;/div&gt;" style="whiteSpace=wrap;html=1;rounded=1;shadow=0;strokeColor=none;strokeWidth=2;fillColor=#009BFF;fontSize=20;fontColor=#FFFFFF;align=center;arcSize=3;verticalAlign=top;spacingTop=4;" parent="1" vertex="1">
          <mxGeometry x="202" y="810" width="1253" height="513" as="geometry" />
        </mxCell>
        <mxCell id="h21AeX88V2tO6TACi44t-10" value="Librerias " style="rounded=1;whiteSpace=wrap;html=1;" parent="1" vertex="1">
          <mxGeometry x="213.5" y="1250" width="1200" height="60" as="geometry" />
        </mxCell>
        <mxCell id="h21AeX88V2tO6TACi44t-11" value="ACTIVE DIRECTORY" style="rounded=1;whiteSpace=wrap;html=1;" parent="1" vertex="1">
          <mxGeometry x="222" y="1180" width="210" height="60" as="geometry" />
        </mxCell>
        <mxCell id="h21AeX88V2tO6TACi44t-36" value="A" style="text;html=1;strokeColor=none;fillColor=none;align=center;verticalAlign=middle;whiteSpace=wrap;rounded=1;shadow=0;fontSize=11;fontColor=#FFFFFF;fontStyle=1" parent="1" vertex="1">
          <mxGeometry x="629" y="1525" width="20" height="20" as="geometry" />
        </mxCell>
        <mxCell id="h21AeX88V2tO6TACi44t-37" value="&lt;div&gt;Windows 2016 SERVER DATACENTER&lt;/div&gt;&lt;div&gt;ERP.DHAP.COM&lt;br&gt; &lt;/div&gt;&lt;div&gt;&lt;div&gt;&lt;font style=&quot;font-size: 20px&quot;&gt;DELL POWEREDGE T330&lt;/font&gt;&lt;/div&gt;&lt;/div&gt;" style="whiteSpace=wrap;html=1;rounded=1;shadow=0;strokeColor=none;strokeWidth=2;fillColor=#009BFF;fontSize=20;fontColor=#FFFFFF;align=center;arcSize=3;verticalAlign=top;spacingTop=4;" parent="1" vertex="1">
          <mxGeometry x="203" y="1510" width="1253" height="513" as="geometry" />
        </mxCell>
        <mxCell id="h21AeX88V2tO6TACi44t-38" value="" style="rounded=1;whiteSpace=wrap;html=1;" parent="1" vertex="1">
          <mxGeometry x="213" y="1947" width="1200" height="60" as="geometry" />
        </mxCell>
        <mxCell id="h21AeX88V2tO6TACi44t-39" value="ERP " style="rounded=1;whiteSpace=wrap;html=1;fillColor=#EA6B66;fontColor=#FFFFFF;" parent="1" vertex="1">
          <mxGeometry x="213" y="1877" width="267" height="60" as="geometry" />
        </mxCell>
        <mxCell id="h21AeX88V2tO6TACi44t-43" value="REMOTE DESKTOP APPS SERVER" style="rounded=1;whiteSpace=wrap;html=1;fillColor=#EA6B66;fontColor=#FFFFFF;" parent="1" vertex="1">
          <mxGeometry x="490" y="1877" width="440" height="60" as="geometry" />
        </mxCell>
        <mxCell id="h21AeX88V2tO6TACi44t-44" value="&lt;div&gt;D:/REPORTES&lt;/div&gt;&lt;div&gt;D:/VSAI/EMPRESAS/DHAPSA/DOCUMENTOS/TESORERIA&lt;/div&gt;&lt;div&gt;D:/VSAI&lt;/div&gt;&lt;div&gt;C:WINDOWS/SYSTEM32/&lt;br&gt;&lt;/div&gt;SPOOL/DRIVERS" style="rounded=1;whiteSpace=wrap;html=1;" parent="1" vertex="1">
          <mxGeometry x="1210" y="1647" width="180" height="220" as="geometry" />
        </mxCell>
        <mxCell id="h21AeX88V2tO6TACi44t-45" value="FILE SHARE" style="rounded=1;whiteSpace=wrap;html=1;fillColor=#EA6B66;fontColor=#FFFFFF;" parent="1" vertex="1">
          <mxGeometry x="1210" y="1877" width="180" height="60" as="geometry" />
        </mxCell>
        <mxCell id="h21AeX88V2tO6TACi44t-46" value="&lt;div&gt;&amp;nbsp;&lt;br&gt;&lt;/div&gt;&lt;div&gt;HTTP &lt;br&gt;&lt;/div&gt;&lt;div&gt;REMOTE WEB&lt;br&gt;&lt;/div&gt;" style="rounded=1;whiteSpace=wrap;html=1;" parent="1" vertex="1">
          <mxGeometry x="820" y="1647" width="230" height="220" as="geometry" />
        </mxCell>
        <mxCell id="h21AeX88V2tO6TACi44t-47" value="NOTEPAD" style="rounded=1;whiteSpace=wrap;html=1;" parent="1" vertex="1">
          <mxGeometry x="720" y="1647" width="91" height="220" as="geometry" />
        </mxCell>
        <mxCell id="h21AeX88V2tO6TACi44t-48" value="USUARIOS SAI" style="rounded=1;whiteSpace=wrap;html=1;" parent="1" vertex="1">
          <mxGeometry x="1061" y="1647" width="142" height="220" as="geometry" />
        </mxCell>
        <mxCell id="h21AeX88V2tO6TACi44t-62" value="DHAP01.COM" style="rounded=1;whiteSpace=wrap;html=1;" parent="1" vertex="1">
          <mxGeometry x="219" y="946.5" width="210" height="220" as="geometry" />
        </mxCell>
        <mxCell id="h21AeX88V2tO6TACi44t-64" value="SMB FILES SHARE SERVICE" style="rounded=1;whiteSpace=wrap;html=1;" parent="1" vertex="1">
          <mxGeometry x="441.75" y="1180" width="210.25" height="60" as="geometry" />
        </mxCell>
        <mxCell id="h21AeX88V2tO6TACi44t-65" value="IIS" style="rounded=1;whiteSpace=wrap;html=1;" parent="1" vertex="1">
          <mxGeometry x="665.75" y="1180" width="176.25" height="60" as="geometry" />
        </mxCell>
        <mxCell id="h21AeX88V2tO6TACi44t-66" value="&lt;div&gt;D:/&lt;/div&gt;&lt;div&gt;E:/&lt;br&gt;&lt;/div&gt;" style="rounded=1;whiteSpace=wrap;html=1;" parent="1" vertex="1">
          <mxGeometry x="441.75" y="946.5" width="210.25" height="220" as="geometry" />
        </mxCell>
        <mxCell id="h21AeX88V2tO6TACi44t-67" value="DNS" style="rounded=1;whiteSpace=wrap;html=1;" parent="1" vertex="1">
          <mxGeometry x="854" y="1180" width="168" height="60" as="geometry" />
        </mxCell>
        <mxCell id="h21AeX88V2tO6TACi44t-68" value="INTRANET" style="rounded=1;whiteSpace=wrap;html=1;" parent="1" vertex="1">
          <mxGeometry x="665.75" y="946.5" width="176.25" height="220" as="geometry" />
        </mxCell>
        <mxCell id="h21AeX88V2tO6TACi44t-69" value="" style="label;whiteSpace=wrap;html=1;arcSize=16;strokeColor=#6c8ebf;fillColor=#0066CC;gradientColor=#3399FF;" parent="1" vertex="1">
          <mxGeometry x="200" y="1340" width="1262" height="120" as="geometry" />
        </mxCell>
        <mxCell id="h21AeX88V2tO6TACi44t-72" value="DHAP-SERVER. DHAP01.COM" style="rounded=1;whiteSpace=wrap;html=1;" parent="1" vertex="1">
          <mxGeometry x="854" y="940" width="168" height="230" as="geometry" />
        </mxCell>
        <mxCell id="h21AeX88V2tO6TACi44t-73" value="ACTIVE DIRECTORY" style="rounded=1;whiteSpace=wrap;html=1;fillColor=#EA6B66;fontColor=#FFFFFF;" parent="1" vertex="1">
          <mxGeometry x="222" y="1180" width="210" height="60" as="geometry" />
        </mxCell>
        <mxCell id="h21AeX88V2tO6TACi44t-74" value="DHAP01.COM" style="rounded=1;whiteSpace=wrap;html=1;" parent="1" vertex="1">
          <mxGeometry x="219" y="946.5" width="210" height="220" as="geometry" />
        </mxCell>
        <mxCell id="h21AeX88V2tO6TACi44t-75" value="SMB FILES SHARE SERVICE" style="rounded=1;whiteSpace=wrap;html=1;fillColor=#EA6B66;fontColor=#FFFFFF;" parent="1" vertex="1">
          <mxGeometry x="441.75" y="1180" width="210.25" height="60" as="geometry" />
        </mxCell>
        <mxCell id="h21AeX88V2tO6TACi44t-76" value="IIS" style="rounded=1;whiteSpace=wrap;html=1;fillColor=#EA6B66;fontColor=#FFFFFF;" parent="1" vertex="1">
          <mxGeometry x="665.75" y="1180" width="176.25" height="60" as="geometry" />
        </mxCell>
        <mxCell id="h21AeX88V2tO6TACi44t-77" value="&lt;div&gt;D:/&lt;/div&gt;&lt;div&gt;E:/&lt;br&gt;&lt;/div&gt;" style="rounded=1;whiteSpace=wrap;html=1;" parent="1" vertex="1">
          <mxGeometry x="441.75" y="946.5" width="210.25" height="220" as="geometry" />
        </mxCell>
        <mxCell id="h21AeX88V2tO6TACi44t-78" value="DNS" style="rounded=1;whiteSpace=wrap;html=1;fillColor=#EA6B66;fontColor=#FFFFFF;" parent="1" vertex="1">
          <mxGeometry x="854" y="1180" width="168" height="60" as="geometry" />
        </mxCell>
        <mxCell id="h21AeX88V2tO6TACi44t-79" value="INTRANET" style="rounded=1;whiteSpace=wrap;html=1;" parent="1" vertex="1">
          <mxGeometry x="665.75" y="946.5" width="176.25" height="220" as="geometry" />
        </mxCell>
        <mxCell id="h21AeX88V2tO6TACi44t-80" value="DHAP-SERVER. DHAP01.COM" style="rounded=1;whiteSpace=wrap;html=1;" parent="1" vertex="1">
          <mxGeometry x="854" y="940" width="168" height="230" as="geometry" />
        </mxCell>
        <mxCell id="h21AeX88V2tO6TACi44t-81" value="&lt;div&gt;Windows 2012 SERVER R2 &lt;br&gt;&lt;/div&gt;&lt;div&gt;SERVER01&lt;br&gt;&lt;/div&gt;&lt;div style=&quot;font-size: 21px&quot;&gt;&lt;div&gt;DELL POWEREDGE T20&lt;font style=&quot;font-size: 21px&quot;&gt;&lt;span style=&quot;left: 310.2px ; top: 569.542px ; font-family: sans-serif ; transform: scalex(0.874996)&quot;&gt;&lt;span style=&quot;left: 310.2px ; top: 625.117px ; font-family: sans-serif ; transform: scalex(0.887917)&quot;&gt;&lt;br&gt;&lt;/span&gt;&lt;/span&gt;&lt;/font&gt;&lt;/div&gt; &lt;/div&gt;&amp;nbsp;" style="whiteSpace=wrap;html=1;rounded=1;shadow=0;strokeColor=none;strokeWidth=2;fontSize=20;align=center;arcSize=3;verticalAlign=top;spacingTop=4;fontColor=#FFFFFF;fillColor=#009BFF;" parent="1" vertex="1">
          <mxGeometry x="199.38" y="110" width="1253" height="513" as="geometry" />
        </mxCell>
        <mxCell id="h21AeX88V2tO6TACi44t-82" value="Librerias " style="rounded=1;whiteSpace=wrap;html=1;" parent="1" vertex="1">
          <mxGeometry x="210.88" y="550" width="1200" height="60" as="geometry" />
        </mxCell>
        <mxCell id="h21AeX88V2tO6TACi44t-83" value="ACTIVE DIRECTORY" style="rounded=1;whiteSpace=wrap;html=1;" parent="1" vertex="1">
          <mxGeometry x="219.38" y="480" width="210" height="60" as="geometry" />
        </mxCell>
        <mxCell id="h21AeX88V2tO6TACi44t-84" value="DHAP01.COM" style="rounded=1;whiteSpace=wrap;html=1;" parent="1" vertex="1">
          <mxGeometry x="216.38" y="246.5" width="210" height="220" as="geometry" />
        </mxCell>
        <mxCell id="h21AeX88V2tO6TACi44t-85" value="SMB FILES SHARE SERVICE" style="rounded=1;whiteSpace=wrap;html=1;" parent="1" vertex="1">
          <mxGeometry x="439.13" y="480" width="210.25" height="60" as="geometry" />
        </mxCell>
        <mxCell id="h21AeX88V2tO6TACi44t-87" value="&lt;div&gt;D:/&lt;/div&gt;&lt;div&gt;E:/&lt;br&gt;&lt;/div&gt;" style="rounded=1;whiteSpace=wrap;html=1;" parent="1" vertex="1">
          <mxGeometry x="439.13" y="246.5" width="210.25" height="220" as="geometry" />
        </mxCell>
        <mxCell id="h21AeX88V2tO6TACi44t-91" value="ASPEL" style="rounded=1;whiteSpace=wrap;html=1;fontColor=#FFFFFF;fillColor=#EA6B66;" parent="1" vertex="1">
          <mxGeometry x="219.38" y="480" width="210" height="60" as="geometry" />
        </mxCell>
        <mxCell id="h21AeX88V2tO6TACi44t-92" value="&lt;div&gt;coi&lt;/div&gt;&lt;div&gt;noi&lt;/div&gt;&lt;div&gt;banco&lt;/div&gt;&lt;div&gt;sae&lt;br&gt;&lt;/div&gt;" style="rounded=1;whiteSpace=wrap;html=1;" parent="1" vertex="1">
          <mxGeometry x="216.38" y="246.5" width="210" height="220" as="geometry" />
        </mxCell>
        <mxCell id="h21AeX88V2tO6TACi44t-93" value="SMB FILES SHARE SERVICE" style="rounded=1;whiteSpace=wrap;html=1;fontColor=#FFFFFF;fillColor=#EA6B66;" parent="1" vertex="1">
          <mxGeometry x="439.13" y="480" width="210.25" height="60" as="geometry" />
        </mxCell>
        <mxCell id="h21AeX88V2tO6TACi44t-95" value="&lt;div&gt;C:/ASPEL/DAC&lt;/div&gt;&lt;div&gt;C:/ASPEL&lt;/div&gt;&lt;div&gt;C:/ASPEL/DHAPASYS&lt;/div&gt;&lt;div&gt;C:/IBX server01&lt;/div&gt;&lt;div&gt;C:/users&lt;br&gt;&lt;/div&gt;" style="rounded=1;whiteSpace=wrap;html=1;" parent="1" vertex="1">
          <mxGeometry x="439.13" y="246.5" width="210.25" height="220" as="geometry" />
        </mxCell>
        <mxCell id="ba4D37urr-UTniGTRj7g-1" value="" style="label;whiteSpace=wrap;html=1;arcSize=16;gradientColor=#7ea6e0;strokeColor=#6c8ebf;fillColor=#0066CC;" parent="1" vertex="1">
          <mxGeometry x="199.38" y="640" width="1255.5" height="120.5" as="geometry" />
        </mxCell>
        <mxCell id="ba4D37urr-UTniGTRj7g-10" value="&lt;font style=&quot;font-size: 10px&quot;&gt;WINDOWS OS&lt;/font&gt;" style="pointerEvents=1;shadow=0;dashed=0;html=1;labelPosition=center;verticalLabelPosition=top;verticalAlign=bottom;align=center;outlineConnect=0;shape=mxgraph.veeam2.microsoft_windows;strokeColor=#006EAF;fontColor=#ffffff;fillColor=#009BFF;" parent="1" vertex="1">
          <mxGeometry x="210" y="2229" width="60" height="50" as="geometry" />
        </mxCell>
        <mxCell id="ba4D37urr-UTniGTRj7g-27" value="&lt;font size=&quot;1&quot;&gt;LINUX&lt;/font&gt;" style="shadow=0;dashed=0;html=1;strokeColor=none;labelPosition=center;verticalLabelPosition=top;verticalAlign=bottom;align=center;outlineConnect=0;shape=mxgraph.veeam.linux;fillColor=#8BC63E;fontColor=#FFFFFF;" parent="1" vertex="1">
          <mxGeometry x="588.5" y="2232" width="51.5" height="51" as="geometry" />
        </mxCell>
        <mxCell id="ba4D37urr-UTniGTRj7g-42" value="CONTAINERS" style="shape=image;verticalLabelPosition=top;verticalAlign=bottom;imageAspect=0;aspect=fixed;image=data:image/png,iVBORw0KGgoAAAANSUhEUgAAAGAAAABgCAYAAADimHc4AAAABmJLR0QA/wD/AP+gvaeTAAAI0UlEQVR4nO2ca3CU1RnHf8972c1ek7gbclUiULGK0uKFatGpDJapFVHasa12qlOnH2ov9kP7wWlVWmuH6ji2GUasl/FSreOMonWqVrQVFRWBKnjBSlEIoJDAZje72SR7Pf0QYSDZTXaz72YLPb9PydnnPM/Z5/+e95zzvO8saDQajUaj0Wg0Go1Go9FoNBqNRqPRaDTHMlLrAZTKlgPbVSl2c8OzjprvBGDUegD/72gBaowWoMZoAWqMFqDGaAFqjBagxmgBaowWoMZY1XIs9/yqpJPr5suuLsnfF558oILRVI5SajmQF5HfOOm3agIcSyilbgRu+uzvtIiscMq3vgVNgFLq28Dyw5p+p5S61Cn/WoBxUEp1An/iyKKlAA8qpU5wIoYWYHz+CAQLtAeBLicCaAGKoJSaD1wyjslSpdSZlcbRAhTnxw7ZjIsWoABKKRtYUoLpRUqpinKoBSjM54D6EuyagLZKAmkBCjOjDNsxAiilXEqphlI6l30Qq9UJt2R/UNL41A9+O96z4+aSgo2QVUp5gCuBZcBZQBhAKZUFdgFvAWuBv4lI9+Gd9Um4MPEybM8BngFaCnxmMTKbZgDfBH4CnDzaQDOWA2XYrizD9onRDXoNKMwmIFMFv4+PbtACFEBEEsAGh92+ISJvj27UAhTnXof93VioUQtQnEeB3Q75ek5EXiz0gRagCCKSAn7qgKs9wFXFPtQCFEEpJcD0Ct1EgMtEZH8xA70NBZRSjYALaAdOBL4EXArMqsDtTuBiEXl/PKMjToNKqTpgqIKgmpH8rQR+LSLJiYxHz4BAVYZ07JEABoBGIA/sAzYD/wQeEZFYqY5GC5B1aoTHODeKyB+ccDR6Ea7G6e9YQwGrnXI2oQBDw8Os6LqTX95yG9FYf8mOo7F+brr1Dh587HGUKqlAeQTDqRR33HUfN9/exXAqVXb/fD7Pqvsf5rl/rC2770EefOxxbr69i8TAwOHNG0Rk13j95n/1kgvPXrz0tTMWL2udKMaYkqxSajASjXp2dO/mtQ3/Ys1LrxCJRgHweb1csOAcFp53LjM7p9PcFD7UL51Os7enl/f+vY31m95m7evryWRG9Dxp5oksWbyIBfPPomVaEyKFK8F90Rgfbv+YV9dv4IWXXyUxMLKGNQSDfG3RV1i44FxOmjUDt8tV9AtFolFefHkdTz77PDt37UFEOHveXC5fejHzTpuDx1M3bkLS6TQvrXuD1c/8nS3vfwCAx1PH1xct5Pxzzmb2zBN/2NDQcNfofmcsWeK10+bFCvU94KLPctujRN2ulHo2pVI731mzZsyiPCYT8xcvLflyrXO7sW0bYPRVUhSvx0N7azMBvx/TNMnn88T640T7++mLTrx2WZbJ9I52mkIh6uuDmIZBKpUmnkjwcffuQxdLIQzDYGbnCbS3tBA6rhGv1wOMzLZYLM6OXbvp3r2HTHbcpTCLqF0o6QZygAl0MnJmmPBc9ebzfz0i5xUJoCmfCQXYEf90czw9OHfqhnR0IAghl//L7cHm1530O2bKuAx7k5MBjhUCLu8HTicfCgkg5lNOBznaMUSoM+2iBbWKfI9uCHsbnzXFzFcj2NFKwPaub/WFN1bD95hinIjkP+r/ZPdAZqjSSmDJ2IZFmy9MwB7ZlQxkhtg7GCGVq/250DbsrMcwHHsbejQFt022aTl20psI27A4qeF46l0+DDEwxCDo8jGrvgPbqH2xtsHtW97sb+6plv+CAvhS1nJTjCnZjrb5wphi8NqGTSy58hou+e41vLHxLUwxaPOFpmIIRQm6vNvafOFbqhmjoAChUCjuteveqWbggxy87fy+axX7IxF6D0RY0XUnAH7bOxVDKIhtWFnLci2sdpyiJzeP2D+To+fHVBxFRAi6/Ncc7w1/Uu1YRQVoDTSt9dru7dUewEBm5PnP9df9iGnhEM1NYa6/7loAEpnBaocvSKPLf3eHP/zQVMQa9xL/NLn/zMhwYmNeTX5X2heJsWNbN1vf3caHW7eDAd+5ehmnnj4bALdpM6u+A1OOvBZyKse22B4y+al9RFHv9q/tDLRcMFXxJrzH7Ezse6E/NbBodHs2m2N4aJihoRRDg4MkBwaJHIjRF4kS2d9H3/4oez/tJR5PjPF5XKiBFV03HPp/ZBsaOnTPT2QG2ZuMTHnygy7v1s5A6xwRmbJ62IT7vP5kz6X3rXwq/t7WD42DLx6n0mmymcknJ5vNHfF/Jp+lO1G1nV5J+EeSf/pUJh9KKJ/ObZmbXHzh+dcaAsnkIMnkYEXJb2xs4Iqrl026fzUIunwbZwRaTxOR3MTWzlLyNueRp59+YtXdf16WyaTLCtDcFGbO50/m1FNmM+fk2bS1NrMv10cl64pTCELQ7Xu0M9ByRe3GUAYPrF79yj33PXzewVuI2+XC5/MR9PsJBHw01AdpaZ5Ge2sLx7e30d7aSsDvG+MnnkuSULXZ4RzEMsx8vcv/8w5/0x21HEfZG/1PYpHHXFiXV3JCyJFjXy4Kk3hW7AReq67HY/kWd/gbt9RkAIdR9quJ7Q2hb+Xs/A1ZNfnbpYlJUDyT7j9ZLMPM17sDq2bVt7f+LyQfKvjd0P3J2LxsJr/OxpxcJpWiNx8jo6q/1RQEv8uzxefyfqO5ruGjqgcsg4prDb0D0ftVRl1lilm2rxx5DmRjZKnO5kMQfHbdfyyxvz89OG1dVYJUiCPFnriKh5ID2TVGTr5oYpTlM0eOSC7u6EywDSvnsdyveyz7Fy3e8JuOOa4CjlbblFJ1PQN996u8usxSlrvUYl4eRTyXJKkm/16wKYbyWO5u27Dv7fU33XqmSO2f5pRA1cqdkUTklLSS28irBSZGwChhZqRVmnh+kJSaOHemGMpl2lHbsDZbpvmXHm/TQ0dL0g9nyurNvUPR83MZrlIqP0+gQ5QEUNhiIEqJGIzMF0FIqwwpyeRTKp0FyViGmTTE6DWRHUp418J8sd0ffqUWJ1eNRqPRaDQajUaj0Wg0Go1Go9FoNJpy+S+1WM5T+TZYZgAAAABJRU5ErkJggg==;labelPosition=center;align=center;fontColor=#FFFFFF;fontSize=10;" parent="1" vertex="1">
          <mxGeometry x="760" y="2222" width="70" height="70" as="geometry" />
        </mxCell>
        <mxCell id="ba4D37urr-UTniGTRj7g-47" value="&lt;span style=&quot;&quot;&gt;HYPER V&lt;br&gt;&lt;/span&gt;" style="shadow=1;html=1;strokeColor=none;labelPosition=center;verticalLabelPosition=top;verticalAlign=bottom;align=center;outlineConnect=0;shape=mxgraph.veeam.vm_linux;labelBackgroundColor=none;fontSize=10;fontColor=#FFFFFF;fillColor=#EA6B66;sketch=0;labelBorderColor=none;" parent="1" vertex="1">
          <mxGeometry x="910" y="2232" width="60" height="57.1" as="geometry" />
        </mxCell>
        <mxCell id="ba4D37urr-UTniGTRj7g-49" value="FILE SHARE" style="shape=image;verticalLabelPosition=top;verticalAlign=bottom;imageAspect=0;aspect=fixed;image=data:image/png,iVBORw0KGgoAAAANSUhEUgAAAGQAAABkCAYAAABw4pVUAAAABmJLR0QA/wD/AP+gvaeTAAACkUlEQVR4nO3dvWoUYRjF8fOIWKQVPxD1BtKJWFsmWIo3EFQsBMu9Be/AMo2dtbUBC7ERL0AsdoOoiWAsFLOSY5ENyLKRfd6Zlzk7c371PrMz89/JZgbyBjAzMzMzM1sRJG+SfEFyj80ckHxO8lLXx7SySG6RnDYMMe8LyfWuj23l8PjKaDvGiTHJi10fY5fOFMyMAJxte0dmrgHYJhmVtt8/bP6dsYwnXR9nV9KfRJJHJXNJhwDuAXhd+X3adhARR002UBKETd6w534DeAlgFBEfSjbgIHX8ALAREW+ygw5SzycA6xHxPTNU8luWLecKgMfZIQep6252wD+y6voVEWuZAQepLCJS57jkjvtjwYyZmfVP0TMpkmsALre8L33zOSJ+ZodKfsvaAvAMwLns7MAcAngUEduZoZIg+wDOZ+cGaj8iLmQGfB9SWfY+xI9OxDiIGAcR4yBiHESMg4hxEDEOIsZBxDiIGAcR4yBiHESMg4hxEDEOIsZBxDiIGAcR4yBiHESMg4hxEDEOIsZBxDiIGAcR4yBiHESMg4hxEDEOIsZBxDiIGAcR4yBiHERMSRD/Fe7y0ueqJMi3gpmh2ssOlATZKZgZqp3sQMnCATcAvEW91a37YgrgVkS8zwylr5CIeAfgAYA/2dkBmQK4n40BNFihenaljADcBjDoBfT/8RXAKwBPS2IA9ZcMr25+7ZXs2iJqfB8ixkHEOIgYBxHjIGZmZtYtkndI7i74D28Tkptd79/gzE78acZd75+U/3x6iy14j1Zfn1TtKqzyII7kBMDVNrc5/9Bw0Ulv8voCk4i43vI2fWOoplaQhwB2K21bwQTHx2gn6C91LSQ3T4kyJrnR9f6ZmZmZmZmZWR/8BT8ZHjnZUNcbAAAAAElFTkSuQmCC;labelPosition=center;align=center;fontSize=10;fontColor=#FFFFFF;" parent="1" vertex="1">
          <mxGeometry x="1095" y="2233" width="51" height="51" as="geometry" />
        </mxCell>
        <mxCell id="ba4D37urr-UTniGTRj7g-52" value="&lt;div&gt;ACTIVE&lt;/div&gt;&lt;div&gt;DIRECTORY&lt;/div&gt;" style="verticalLabelPosition=top;html=1;verticalAlign=bottom;align=center;strokeColor=none;shape=mxgraph.azure.azure_active_directory;shadow=1;labelBackgroundColor=none;sketch=0;fontSize=10;fontColor=#FFFFFF;fillColor=#FFFFFF;labelPosition=center;" parent="1" vertex="1">
          <mxGeometry x="1187.75" y="2238.75" width="35.75" height="34.5" as="geometry" />
        </mxCell>
        <mxCell id="ba4D37urr-UTniGTRj7g-56" value="COI" style="shape=image;verticalLabelPosition=top;labelBackgroundColor=none;verticalAlign=bottom;aspect=fixed;imageAspect=0;image=data:image/png,iVBORw0KGgoAAAANSUhEUgAAAEAAAABACAYAAACqaXHeAAAABmJLR0QA/wD/AP+gvaeTAAACmElEQVR4nO2by2oUQRSGvzJBBcHLLjErRePoUmTGjS5VcOsbiO/gZRHyPu5FMIIuFd0ah4wrdRcNRkEl8ruYHqmEpC9T18H6Vj01pw5/H5qq/rs4hg5IughcA051mReRr8BLY8y616ySepKea3ZYk3Shzb2ZFjc/AJ4CJ1wLGZkt4KYx5lVdUG0BJB0H1oHFamgHeAK8B/54EOmTOaAH3ALmq7HPQM8Ysz1VRkmPrMdqU9IVP1rDIakv6Yul+4FLsjdWorsedQZF0j1L92uXRNtWogWPGoMiacHS/a0utmkN0L9AYxoXzJxoq/1QHDn54lQAScuSPjjs166MJJ1PVgDgDnDGMYcLZysNU+NagMOO831wxGWyzzVg1UQCWPUluiyCqQWk5r8vwHxzSGtWJK14zBcF1yfgtxcVbvxymexagMfAyDGHC6NKw9QULxBHTr6UArhMVrMZ2mVWQsdHLwDNZmivWQkd35kYZsg2K6HjO1PWgNQCUlMKkFpAamJ4AftdPXS8X+wN94D/lyVt1OzTG/vs68Hiu2ifULxAHDn5UgrgMlnFCxQvULzArFMKkFpAakoBHOfP1rv9PoQ+F9j73b5rfHCcjsaMMUPgXKj4GJQ1ILWA1GTtBWKQuxcITu5eIDhlDUgtIDWlAKkFpCZ3L1DOBbrEd9E+oZwLxJGTL00F+D65kLRYF5gTkpasn7UtM00FGFrXt6dWFB9b6/DAqCYkPbTWkk1JfXdtYZE00O62uft18W0aJ98Bp6uhHcZdpG+BHz4Ee+QYcJlx4+RcNfYRuFTXONmmdbbP+KZPehAZky3ghjGmtm+wcReoem+vAmuehMXgGTBounlo8QTYaNyRfR1YAo5Opy0YP4FPwIvq22Mr/gLzvImIb++awgAAAABJRU5ErkJggg==;labelPosition=center;align=center;fontColor=#FFFFFF;fontSize=10;" parent="1" vertex="1">
          <mxGeometry x="1271.5" y="2225.75" width="49" height="49" as="geometry" />
        </mxCell>
        <mxCell id="ba4D37urr-UTniGTRj7g-58" value="NOI" style="shape=image;verticalLabelPosition=top;verticalAlign=bottom;imageAspect=0;aspect=fixed;image=data:image/png,iVBORw0KGgoAAAANSUhEUgAAAEAAAABACAYAAACqaXHeAAAABmJLR0QA/wD/AP+gvaeTAAAGWElEQVR4nO2aeYhVVRzHv2fScSfNmtEyWsQFUpvUFqjErFSMNITIFAtaBYswzeqPsEUtqcYlK4KwbNGytDAqTIgioiA1TcMlLKsZNzKXGTVR59Mf57w878y97933fDMG3i8MnHfv97fds/1+54yUIkWKFClSpEiRIkWKFKchTHMbBIyk/pJ6S6pwj3dL2ijpR2MMze1TswDoAswBaolHLTAbqDzV/pYMgAGmAvU5Ag9RB0xxo6VJ0aQGgNaS3pA0Jni1U9JXkrY7H7pKGiypS8BbLOkuY8w/Telnk8D1/OKgZ1cBQ4GyCH4ZMAxYE8gsao6RUBSAPsCtwP3AWcG7qUEg1cAZCXS2wK4VPiYHnLOBCcBooEep48rnYCtgMrA5cHK5x+lC9pyvLsKO/xHq8BZG4MvA9jr3QVqUKs44pwYCW4jGyhjnVyXp+QhbLcieDtXeu+9jfFgLXFKqeEOHbnA94WM/8AkwEzjf8QzZW93Qk7A53NNTg1sLgO7ALOAzGu8ufwPXlCrujCM9gH2BkYlAmwjuQI+3nYgFrwC7ZcBOT1//CE577JQ84PH+Ai4o1m6UI995yrcC3XNwx3rcxSWw/b6nL9xOfV4fN0oy+DqJ/ry9A9ws6Sr3s17STcaYrTlEunrt2iRO5EGN1z43jmSM2SBplKQj7tEgYFg+5UmG591e+3ljzKYEMqcExpjVkl71Ht2TTybnBwDKJV3vfjZIei2BH9u99nkJ+PnQLUZ3HF722kOBlkVbBi725tT6hDIDPJkdJVgEd3n6Lkso94cnc2Eubj7nKrz2jiTGJa3RiZ7qIqnobVDScM+HGklrE8r5a09YX2Qh3wc46LXbJbHs6vkl3qOZFJGhOZmZ3qMlBZwVtPfa9YXa9p3oHOytiTI6oJLspGlOEbbnefIHgIr8UhLQBjjoyXYq1HaocIOn7MYC5KaQjblJRgI2BX4pkJ1UgN3Rnty6pHK5FD7tKfw26aKGTYkXBYGswaa3ceXwCGw+7+MdEpbD7uOt82SnFRpvlNJzsDl/BtMLkG0d8RHAprfvYUvkamy2tyuC9y72UCWpvbme7F6gc3FRN1b8cODY3FyOAeVAP9erBpurh4VULhwAJjnZMmyaGzt9gHbA64GOiSUJ3hmIGs6/A48459phF8wrgBmcKGAWejoqsb1dQzz+BF7EW/CApe5dLTANm2d0whZBVcDjND5oXZA0tsRHTdiscL6ke5PKSPrFGNMz0GMkVckei2f26J2SNklaG251QI0KyyjnSZpsjDlWgExyYKu9bTl60R8heYuRBPZGYcvqfNgM3FKKGJM41Rq4DXvouRE7vw8BvwFLgNuBViW01wYY76bDNuAw9nxiA7AAGMnJ5PynM07F1Vgr2Qqvk6SO7vFeSfsk1RhjjsTJNgWa/ANgt8sRskXR5ZL6Soobrkcl/SRplaQVkj7/312KAL3IU2I6XhXwFtlJVKHYD7wJXJrA3oVAr5IEGaG8E/AYJ+qCY8B1Mdy+wEdAQ0xQDdgdYhWw0v39APzq9MbJLAP6xtgc4sluAB4FOkZxCw28PTCd6CzugYBbjq0bjkZwN7t3Q4Az89gbBDwBrI/Qc9TpKQ/kHozg1gHPAInK+ChnhhF9lV0PLAQ6eNzuNC5iGoAPgYFFOWD19sMWQ+HIWIt3Mg10wE63gzRGDYXcTWBz71k0HsKrgXEEdwHY9DcsZL4B+hUbeIRPvYEvAhu7gSsDXlvgTrIrwkxnPEe+ShZ777c0EK4BxhBRkmKHtH8zcxhbxBR9DpjDN4O9//PtHSTijMJx7yD7UgXsiCyP0i+gJfBxILCU4NbX4/cl+7ZoD3B1ieOOsjsAe9iawQGgKoZbAXwaxLSMqMoSeCUgzojqdcftSvbJay3Qu8SxxgK75W0N7HeL4ZbR+Lp9fkgaHxCeyuPAco9bR8SdXVMD6Ik9p8xgRVyHOf4LQYxjMy8qsZedGbydx/A4j9sAjCxxbIkBXEv2tntfDq4BPvC4e4DK8C5/C9A2h5Iysudf4oOHpgLwrOfPXuIWOf2XZ/hTZ3aZ7JWXJB2XNMEYcyiXPceT7EXF5Bzc5sKTkn527YYcPBlj6mUPdDIxHM/U2hOISW1DYJOeh4CLivW41MAuypOISZUj+INdzI3+vyFFihQpUqRIkeK0wb/VZ++mQ8gTNAAAAABJRU5ErkJggg==;labelPosition=center;align=center;fontColor=#FFFFFF;fontSize=10;" parent="1" vertex="1">
          <mxGeometry x="1360" y="2229" width="41.5" height="41.5" as="geometry" />
        </mxCell>
        <mxCell id="ba4D37urr-UTniGTRj7g-60" value="&lt;div&gt;SAI ERP&lt;/div&gt;" style="strokeWidth=2;html=1;shape=mxgraph.lean_mapping.mrp_erp;whiteSpace=wrap;shadow=1;labelBackgroundColor=none;sketch=0;gradientColor=none;fontSize=10;fontColor=#FFFFFF;align=center;fillColor=#EA6B66;strokeColor=#FFFFFF;labelPosition=center;verticalLabelPosition=top;verticalAlign=bottom;" parent="1" vertex="1">
          <mxGeometry x="1450" y="2225" width="28.5" height="50.5" as="geometry" />
        </mxCell>
        <mxCell id="ba4D37urr-UTniGTRj7g-61" value="RDP" style="pointerEvents=1;shadow=0;dashed=0;html=1;strokeColor=none;labelPosition=center;verticalLabelPosition=top;verticalAlign=bottom;outlineConnect=0;align=center;shape=mxgraph.office.concepts.remote_access;labelBackgroundColor=none;sketch=0;fontSize=10;fontColor=#FFFFFF;fillColor=#FFFFFF;" parent="1" vertex="1">
          <mxGeometry x="1520" y="2228" width="59" height="41" as="geometry" />
        </mxCell>
        <mxCell id="ba4D37urr-UTniGTRj7g-62" value="" style="line;strokeWidth=2;direction=south;html=1;rounded=0;shadow=0;fillColor=none;fontSize=30;fontColor=#FFFFFF;align=center;strokeColor=#FFFFFF;" parent="1" vertex="1">
          <mxGeometry x="980" y="2192" width="10" height="102" as="geometry" />
        </mxCell>
        <mxCell id="ba4D37urr-UTniGTRj7g-63" value="" style="line;strokeWidth=2;direction=south;html=1;rounded=0;shadow=0;fillColor=none;fontSize=30;fontColor=#FFFFFF;align=center;strokeColor=#FFFFFF;" parent="1" vertex="1">
          <mxGeometry x="980" y="2192" width="10" height="102" as="geometry" />
        </mxCell>
        <mxCell id="ba4D37urr-UTniGTRj7g-64" value="" style="line;strokeWidth=2;direction=south;html=1;rounded=0;shadow=0;fillColor=none;fontSize=30;fontColor=#FFFFFF;align=center;strokeColor=#FFFFFF;" parent="1" vertex="1">
          <mxGeometry x="1070" y="2192" width="10" height="102" as="geometry" />
        </mxCell>
        <mxCell id="ba4D37urr-UTniGTRj7g-65" value="" style="line;strokeWidth=2;direction=south;html=1;rounded=0;shadow=0;fillColor=none;fontSize=30;fontColor=#FFFFFF;align=center;strokeColor=#FFFFFF;" parent="1" vertex="1">
          <mxGeometry x="1158" y="2192" width="10" height="102" as="geometry" />
        </mxCell>
        <mxCell id="ba4D37urr-UTniGTRj7g-69" value="" style="line;strokeWidth=2;direction=south;html=1;rounded=0;shadow=0;fillColor=none;fontSize=30;fontColor=#FFFFFF;align=center;strokeColor=#FFFFFF;" parent="1" vertex="1">
          <mxGeometry x="1250" y="2192" width="10" height="102" as="geometry" />
        </mxCell>
        <mxCell id="ba4D37urr-UTniGTRj7g-70" value="" style="line;strokeWidth=2;direction=south;html=1;rounded=0;shadow=0;fillColor=none;fontSize=30;fontColor=#FFFFFF;align=center;strokeColor=#FFFFFF;" parent="1" vertex="1">
          <mxGeometry x="1335.75" y="2192" width="10" height="102" as="geometry" />
        </mxCell>
        <mxCell id="ba4D37urr-UTniGTRj7g-73" value="" style="line;strokeWidth=2;direction=south;html=1;rounded=0;shadow=0;fillColor=none;fontSize=30;fontColor=#FFFFFF;align=center;strokeColor=#FFFFFF;" parent="1" vertex="1">
          <mxGeometry x="1420" y="2192" width="10" height="102" as="geometry" />
        </mxCell>
        <mxCell id="ba4D37urr-UTniGTRj7g-74" value="" style="line;strokeWidth=2;direction=south;html=1;rounded=0;shadow=0;fillColor=none;fontSize=30;fontColor=#FFFFFF;align=center;strokeColor=#FFFFFF;" parent="1" vertex="1">
          <mxGeometry x="1500" y="2190" width="10" height="102" as="geometry" />
        </mxCell>
        <mxCell id="ba4D37urr-UTniGTRj7g-75" value="" style="line;strokeWidth=2;direction=south;html=1;rounded=0;shadow=0;fillColor=none;fontSize=30;fontColor=#FFFFFF;align=center;strokeColor=#FFFFFF;" parent="1" vertex="1">
          <mxGeometry x="1590" y="2190" width="10" height="102" as="geometry" />
        </mxCell>
        <mxCell id="ba4D37urr-UTniGTRj7g-82" value="&lt;div&gt;BARE METAL&lt;/div&gt;&lt;div&gt;SERVER APP&lt;br&gt;&lt;/div&gt;" style="aspect=fixed;pointerEvents=1;shadow=0;dashed=0;html=1;strokeColor=none;labelPosition=center;verticalLabelPosition=top;verticalAlign=bottom;align=center;shape=mxgraph.mscae.enterprise.application_server;labelBackgroundColor=none;sketch=0;fontSize=10;fontColor=#FFFFFF;fillColor=#FFFFFF;" parent="1" vertex="1">
          <mxGeometry x="387" y="2229" width="43" height="50" as="geometry" />
        </mxCell>
        <mxCell id="ba4D37urr-UTniGTRj7g-84" value="DNS SERVICE" style="verticalLabelPosition=top;html=1;strokeColor=#ffffff;verticalAlign=bottom;align=center;points=[[0.145,0.145,0],[0.5,0,0],[0.855,0.145,0],[1,0.5,0],[0.855,0.855,0],[0.5,1,0],[0.145,0.855,0],[0,0.5,0]];pointerEvents=1;shape=mxgraph.cisco_safe.compositeIcon;bgIcon=ellipse;resIcon=mxgraph.cisco_safe.capability.dns;shadow=1;labelBackgroundColor=none;sketch=0;fontSize=10;fontColor=#FFFFFF;fillColor=#EA6B66;labelPosition=center;" parent="1" vertex="1">
          <mxGeometry x="1620" y="2222" width="50" height="52.5" as="geometry" />
        </mxCell>
        <mxCell id="ba4D37urr-UTniGTRj7g-86" value="SAI" style="rounded=1;whiteSpace=wrap;html=1;" parent="1" vertex="1">
          <mxGeometry x="221.5" y="1647" width="488.5" height="220" as="geometry" />
        </mxCell>
        <mxCell id="ba4D37urr-UTniGTRj7g-91" value="A" style="text;html=1;strokeColor=none;fillColor=none;align=center;verticalAlign=middle;whiteSpace=wrap;rounded=1;shadow=0;fontSize=30;fontColor=#FFFFFF;fontStyle=1" parent="1" vertex="1">
          <mxGeometry x="150" y="2225" width="40" height="35" as="geometry" />
        </mxCell>
        <mxCell id="ba4D37urr-UTniGTRj7g-92" value="&lt;div&gt;SAS&lt;/div&gt;&lt;div&gt;HDD&lt;/div&gt;" style="shadow=0;html=1;strokeColor=none;fillColor=#FFFFFF;labelPosition=center;verticalLabelPosition=top;verticalAlign=bottom;shape=mxgraph.azure.vhd;rounded=0;fontSize=10;fontColor=#FFFFFF;align=center;" parent="1" vertex="1">
          <mxGeometry x="307" y="2229" width="40" height="50" as="geometry" />
        </mxCell>
        <mxCell id="ba4D37urr-UTniGTRj7g-93" value="+" style="text;html=1;strokeColor=none;fillColor=none;align=center;verticalAlign=middle;whiteSpace=wrap;rounded=1;shadow=0;fontSize=30;fontColor=#FFFFFF;fontStyle=1" parent="1" vertex="1">
          <mxGeometry x="260.5" y="2234" width="40" height="35" as="geometry" />
        </mxCell>
        <mxCell id="ba4D37urr-UTniGTRj7g-94" value="+" style="text;html=1;strokeColor=none;fillColor=none;align=center;verticalAlign=middle;whiteSpace=wrap;rounded=1;shadow=0;fontSize=30;fontColor=#FFFFFF;fontStyle=1" parent="1" vertex="1">
          <mxGeometry x="347" y="2237" width="40" height="35" as="geometry" />
        </mxCell>
        <mxCell id="ba4D37urr-UTniGTRj7g-95" value="" style="line;strokeWidth=2;direction=south;html=1;rounded=0;shadow=0;fillColor=none;fontSize=30;fontColor=#FFFFFF;align=center;strokeColor=#FFFFFF;" parent="1" vertex="1">
          <mxGeometry x="190" y="2192" width="10" height="102" as="geometry" />
        </mxCell>
        <mxCell id="ba4D37urr-UTniGTRj7g-96" value="&lt;font style=&quot;font-size: 10px&quot;&gt;WINDOWS OS&lt;/font&gt;" style="pointerEvents=1;shadow=0;dashed=0;html=1;labelPosition=center;verticalLabelPosition=top;verticalAlign=bottom;align=center;outlineConnect=0;shape=mxgraph.veeam2.microsoft_windows;strokeColor=#006EAF;fontColor=#ffffff;fillColor=#009BFF;" parent="1" vertex="1">
          <mxGeometry x="210" y="2229" width="60" height="50" as="geometry" />
        </mxCell>
        <mxCell id="ba4D37urr-UTniGTRj7g-110" value="A" style="text;html=1;strokeColor=none;fillColor=none;align=center;verticalAlign=middle;whiteSpace=wrap;rounded=1;shadow=0;fontSize=30;fontColor=#FFFFFF;fontStyle=1" parent="1" vertex="1">
          <mxGeometry x="150" y="2225" width="40" height="35" as="geometry" />
        </mxCell>
        <mxCell id="ba4D37urr-UTniGTRj7g-111" value="&lt;div&gt;SAS&lt;/div&gt;&lt;div&gt;HDD&lt;/div&gt;" style="shadow=0;html=1;strokeColor=none;fillColor=#FFFFFF;labelPosition=center;verticalLabelPosition=top;verticalAlign=bottom;shape=mxgraph.azure.vhd;rounded=0;fontSize=10;fontColor=#FFFFFF;align=center;" parent="1" vertex="1">
          <mxGeometry x="307" y="2229" width="40" height="50" as="geometry" />
        </mxCell>
        <mxCell id="ba4D37urr-UTniGTRj7g-112" value="+" style="text;html=1;strokeColor=none;fillColor=none;align=center;verticalAlign=middle;whiteSpace=wrap;rounded=1;shadow=0;fontSize=30;fontColor=#FFFFFF;fontStyle=1" parent="1" vertex="1">
          <mxGeometry x="260.5" y="2234" width="40" height="35" as="geometry" />
        </mxCell>
        <mxCell id="ba4D37urr-UTniGTRj7g-113" value="+" style="text;html=1;strokeColor=none;fillColor=none;align=center;verticalAlign=middle;whiteSpace=wrap;rounded=1;shadow=0;fontSize=30;fontColor=#FFFFFF;fontStyle=1" parent="1" vertex="1">
          <mxGeometry x="347" y="2237" width="40" height="35" as="geometry" />
        </mxCell>
        <mxCell id="ba4D37urr-UTniGTRj7g-114" value="" style="line;strokeWidth=2;direction=south;html=1;rounded=0;shadow=0;fillColor=none;fontSize=30;fontColor=#FFFFFF;align=center;strokeColor=#FFFFFF;" parent="1" vertex="1">
          <mxGeometry x="190" y="2192" width="10" height="102" as="geometry" />
        </mxCell>
        <mxCell id="ba4D37urr-UTniGTRj7g-115" value="&lt;font style=&quot;font-size: 10px&quot;&gt;WINDOWS OS&lt;/font&gt;" style="pointerEvents=1;shadow=0;dashed=0;html=1;labelPosition=center;verticalLabelPosition=top;verticalAlign=bottom;align=center;outlineConnect=0;shape=mxgraph.veeam2.microsoft_windows;strokeColor=#006EAF;fontColor=#ffffff;fillColor=#009BFF;" parent="1" vertex="1">
          <mxGeometry x="210" y="2229" width="60" height="50" as="geometry" />
        </mxCell>
        <mxCell id="ba4D37urr-UTniGTRj7g-116" value="&lt;div&gt;BARE METAL&lt;/div&gt;&lt;div&gt;SERVER APP&lt;br&gt;&lt;/div&gt;" style="aspect=fixed;pointerEvents=1;shadow=0;dashed=0;html=1;strokeColor=none;labelPosition=center;verticalLabelPosition=top;verticalAlign=bottom;align=center;shape=mxgraph.mscae.enterprise.application_server;labelBackgroundColor=none;sketch=0;fontSize=10;fontColor=#FFFFFF;fillColor=#FFFFFF;" parent="1" vertex="1">
          <mxGeometry x="387" y="2229" width="43" height="50" as="geometry" />
        </mxCell>
        <mxCell id="ba4D37urr-UTniGTRj7g-117" value="A" style="text;html=1;strokeColor=none;fillColor=none;align=center;verticalAlign=middle;whiteSpace=wrap;rounded=1;shadow=0;fontSize=30;fontColor=#FFFFFF;fontStyle=1" parent="1" vertex="1">
          <mxGeometry x="150" y="2225" width="40" height="35" as="geometry" />
        </mxCell>
        <mxCell id="ba4D37urr-UTniGTRj7g-118" value="&lt;div&gt;SAS&lt;/div&gt;&lt;div&gt;HDD&lt;/div&gt;" style="shadow=0;html=1;strokeColor=none;fillColor=#FFFFFF;labelPosition=center;verticalLabelPosition=top;verticalAlign=bottom;shape=mxgraph.azure.vhd;rounded=0;fontSize=10;fontColor=#FFFFFF;align=center;" parent="1" vertex="1">
          <mxGeometry x="307" y="2229" width="40" height="50" as="geometry" />
        </mxCell>
        <mxCell id="ba4D37urr-UTniGTRj7g-119" value="+" style="text;html=1;strokeColor=none;fillColor=none;align=center;verticalAlign=middle;whiteSpace=wrap;rounded=1;shadow=0;fontSize=30;fontColor=#FFFFFF;fontStyle=1" parent="1" vertex="1">
          <mxGeometry x="260.5" y="2234" width="40" height="35" as="geometry" />
        </mxCell>
        <mxCell id="ba4D37urr-UTniGTRj7g-120" value="+" style="text;html=1;strokeColor=none;fillColor=none;align=center;verticalAlign=middle;whiteSpace=wrap;rounded=1;shadow=0;fontSize=30;fontColor=#FFFFFF;fontStyle=1" parent="1" vertex="1">
          <mxGeometry x="347" y="2237" width="40" height="35" as="geometry" />
        </mxCell>
        <mxCell id="ba4D37urr-UTniGTRj7g-121" value="" style="line;strokeWidth=2;direction=south;html=1;rounded=0;shadow=0;fillColor=none;fontSize=30;fontColor=#FFFFFF;align=center;strokeColor=#FFFFFF;" parent="1" vertex="1">
          <mxGeometry x="190" y="2192" width="10" height="102" as="geometry" />
        </mxCell>
        <mxCell id="ba4D37urr-UTniGTRj7g-122" value="&lt;font style=&quot;font-size: 10px&quot;&gt;WINDOWS OS&lt;/font&gt;" style="pointerEvents=1;shadow=0;dashed=0;html=1;labelPosition=center;verticalLabelPosition=top;verticalAlign=bottom;align=center;outlineConnect=0;shape=mxgraph.veeam2.microsoft_windows;strokeColor=#006EAF;fontColor=#ffffff;fillColor=#009BFF;" parent="1" vertex="1">
          <mxGeometry x="210" y="2229" width="60" height="50" as="geometry" />
        </mxCell>
        <mxCell id="ba4D37urr-UTniGTRj7g-124" value="" style="rounded=0;whiteSpace=wrap;html=1;shadow=0;strokeWidth=2;fontSize=12;align=center;strokeColor=#006EAF;arcSize=6;verticalAlign=top;fontColor=#ffffff;fillColor=#9C91FF;" parent="1" vertex="1">
          <mxGeometry x="150" y="2310" width="707.62" height="102" as="geometry" />
        </mxCell>
        <mxCell id="ba4D37urr-UTniGTRj7g-125" value="A" style="text;html=1;strokeColor=none;fillColor=none;align=center;verticalAlign=middle;whiteSpace=wrap;rounded=1;shadow=0;fontSize=30;fontColor=#FFFFFF;fontStyle=1" parent="1" vertex="1">
          <mxGeometry x="150" y="2225" width="40" height="35" as="geometry" />
        </mxCell>
        <mxCell id="ba4D37urr-UTniGTRj7g-126" value="" style="line;strokeWidth=2;direction=south;html=1;rounded=0;shadow=0;fillColor=none;fontSize=30;fontColor=#FFFFFF;align=center;strokeColor=#FFFFFF;" parent="1" vertex="1">
          <mxGeometry x="190" y="2192" width="10" height="102" as="geometry" />
        </mxCell>
        <mxCell id="ba4D37urr-UTniGTRj7g-127" value="A" style="text;html=1;strokeColor=none;fillColor=none;align=center;verticalAlign=middle;whiteSpace=wrap;rounded=1;shadow=0;fontSize=30;fontColor=#FFFFFF;fontStyle=1" parent="1" vertex="1">
          <mxGeometry x="150" y="2225" width="40" height="35" as="geometry" />
        </mxCell>
        <mxCell id="ba4D37urr-UTniGTRj7g-128" value="" style="line;strokeWidth=2;direction=south;html=1;rounded=0;shadow=0;fillColor=none;fontSize=30;fontColor=#FFFFFF;align=center;strokeColor=#FFFFFF;" parent="1" vertex="1">
          <mxGeometry x="190" y="2192" width="10" height="102" as="geometry" />
        </mxCell>
        <mxCell id="ba4D37urr-UTniGTRj7g-129" value="A" style="text;html=1;strokeColor=none;fillColor=none;align=center;verticalAlign=middle;whiteSpace=wrap;rounded=1;shadow=0;fontSize=30;fontColor=#FFFFFF;fontStyle=1" parent="1" vertex="1">
          <mxGeometry x="150" y="2225" width="40" height="35" as="geometry" />
        </mxCell>
        <mxCell id="ba4D37urr-UTniGTRj7g-130" value="" style="line;strokeWidth=2;direction=south;html=1;rounded=0;shadow=0;fillColor=none;fontSize=30;fontColor=#FFFFFF;align=center;strokeColor=#FFFFFF;" parent="1" vertex="1">
          <mxGeometry x="190" y="2192" width="10" height="102" as="geometry" />
        </mxCell>
        <mxCell id="ba4D37urr-UTniGTRj7g-131" value="A" style="text;html=1;strokeColor=none;fillColor=none;align=center;verticalAlign=middle;whiteSpace=wrap;rounded=1;shadow=0;fontSize=30;fontColor=#FFFFFF;fontStyle=1" parent="1" vertex="1">
          <mxGeometry x="150" y="2225" width="40" height="35" as="geometry" />
        </mxCell>
        <mxCell id="ba4D37urr-UTniGTRj7g-132" value="" style="line;strokeWidth=2;direction=south;html=1;rounded=0;shadow=0;fillColor=none;fontSize=30;fontColor=#FFFFFF;align=center;strokeColor=#FFFFFF;" parent="1" vertex="1">
          <mxGeometry x="190" y="2192" width="10" height="102" as="geometry" />
        </mxCell>
        <mxCell id="ba4D37urr-UTniGTRj7g-133" value="A" style="text;html=1;strokeColor=none;fillColor=none;align=center;verticalAlign=middle;whiteSpace=wrap;rounded=1;shadow=0;fontSize=30;fontColor=#FFFFFF;fontStyle=1" parent="1" vertex="1">
          <mxGeometry x="150" y="2225" width="40" height="35" as="geometry" />
        </mxCell>
        <mxCell id="ba4D37urr-UTniGTRj7g-134" value="A" style="text;html=1;strokeColor=none;fillColor=none;align=center;verticalAlign=middle;whiteSpace=wrap;rounded=1;shadow=0;fontSize=30;fontColor=#FFFFFF;fontStyle=1" parent="1" vertex="1">
          <mxGeometry x="150" y="2225" width="40" height="35" as="geometry" />
        </mxCell>
        <mxCell id="ba4D37urr-UTniGTRj7g-135" value="A" style="text;html=1;strokeColor=none;fillColor=none;align=center;verticalAlign=middle;whiteSpace=wrap;rounded=1;shadow=0;fontSize=30;fontColor=#FFFFFF;fontStyle=1" parent="1" vertex="1">
          <mxGeometry x="150" y="2225" width="40" height="35" as="geometry" />
        </mxCell>
        <mxCell id="ba4D37urr-UTniGTRj7g-136" value="A" style="text;html=1;strokeColor=none;fillColor=none;align=center;verticalAlign=middle;whiteSpace=wrap;rounded=1;shadow=0;fontSize=30;fontColor=#FFFFFF;fontStyle=1" parent="1" vertex="1">
          <mxGeometry x="150" y="2225" width="40" height="35" as="geometry" />
        </mxCell>
        <mxCell id="ba4D37urr-UTniGTRj7g-137" value="A" style="text;html=1;strokeColor=none;fillColor=none;align=center;verticalAlign=middle;whiteSpace=wrap;rounded=1;shadow=0;fontSize=30;fontColor=#FFFFFF;fontStyle=1" parent="1" vertex="1">
          <mxGeometry x="150" y="2225" width="40" height="35" as="geometry" />
        </mxCell>
        <mxCell id="ba4D37urr-UTniGTRj7g-138" value="A" style="text;html=1;strokeColor=none;fillColor=none;align=center;verticalAlign=middle;whiteSpace=wrap;rounded=1;shadow=0;fontSize=30;fontColor=#FFFFFF;fontStyle=1" parent="1" vertex="1">
          <mxGeometry x="150" y="2225" width="40" height="35" as="geometry" />
        </mxCell>
        <mxCell id="ba4D37urr-UTniGTRj7g-139" value="A" style="text;html=1;strokeColor=none;fillColor=none;align=center;verticalAlign=middle;whiteSpace=wrap;rounded=1;shadow=0;fontSize=30;fontColor=#FFFFFF;fontStyle=1" parent="1" vertex="1">
          <mxGeometry x="150" y="2225" width="40" height="35" as="geometry" />
        </mxCell>
        <mxCell id="ba4D37urr-UTniGTRj7g-140" value="A" style="text;html=1;strokeColor=none;fillColor=none;align=center;verticalAlign=middle;whiteSpace=wrap;rounded=1;shadow=0;fontSize=30;fontColor=#FFFFFF;fontStyle=1" parent="1" vertex="1">
          <mxGeometry x="150" y="2225" width="40" height="35" as="geometry" />
        </mxCell>
        <mxCell id="ba4D37urr-UTniGTRj7g-141" value="D" style="text;html=1;strokeColor=none;fillColor=none;align=center;verticalAlign=middle;whiteSpace=wrap;rounded=1;shadow=0;fontSize=30;fontColor=#FFFFFF;fontStyle=1" parent="1" vertex="1">
          <mxGeometry x="150" y="2343.5" width="40" height="35" as="geometry" />
        </mxCell>
        <mxCell id="ba4D37urr-UTniGTRj7g-149" value="" style="line;strokeWidth=2;direction=south;html=1;rounded=0;shadow=0;fillColor=none;fontSize=30;fontColor=#FFFFFF;align=center;strokeColor=#FFFFFF;" parent="1" vertex="1">
          <mxGeometry x="190" y="2310" width="10" height="102" as="geometry" />
        </mxCell>
        <mxCell id="ba4D37urr-UTniGTRj7g-154" value="" style="line;strokeWidth=2;direction=south;html=1;rounded=0;shadow=0;fillColor=none;fontSize=30;fontColor=#FFFFFF;align=center;strokeColor=#FFFFFF;" parent="1" vertex="1">
          <mxGeometry x="190" y="2310" width="13" height="102" as="geometry" />
        </mxCell>
        <mxCell id="ba4D37urr-UTniGTRj7g-155" value="&lt;div&gt;Tight VNC &lt;br&gt;&lt;/div&gt;&lt;div&gt;HYOPERVISOR&lt;br&gt;&lt;/div&gt;" style="shape=image;html=1;verticalAlign=bottom;verticalLabelPosition=top;labelBackgroundColor=none;imageAspect=0;aspect=fixed;image=https://cdn1.iconfinder.com/data/icons/CrystalClear/48x48/apps/vnc.png;shadow=1;sketch=0;strokeColor=#FFFFFF;fillColor=#9C91FF;gradientColor=none;fontSize=10;fontColor=#FFFFFF;align=center;labelPosition=center;" parent="1" vertex="1">
          <mxGeometry x="222" y="2350" width="48" height="48" as="geometry" />
        </mxCell>
        <mxCell id="UfV0CVszUnpOrJ8776jg-1" value="8GB RAM DDR3" style="shape=image;verticalLabelPosition=top;verticalAlign=bottom;imageAspect=0;aspect=fixed;image=data:image/png,iVBORw0KGgoAAAANSUhEUgAAAGQAAABkCAYAAABw4pVUAAAABmJLR0QA/wD/AP+gvaeTAAAD7klEQVR4nO3azW7jVBQH8P+5juM2SeMIByEKVaV5DEawZjRCYseK9TwCHwtAYtE+w2xZsWKBBvZM4TGQZtRWQpNo6tB8+CP3sGhTDVXjxHbjZpr/b1X1ntgn59zr6zgBiIiIiIiIiIiIiIiIiIiIiIiIiIiIiIiIiIiIKiFZg6pa74fhj1D5EoL3q0rqXhKcQuWnwN/5TkTi+WEZemeDQ0C/uv3sNpkcdjvtb+aOZr20F4YnUOz6rSZqjnP7uW2QNJ0iHA4BwWnX9z+YF2cyj6LYBcBm3IJa7bKGlzWdG1fmJIPzEeI0gcjNC01V4bkudpqNjYwvolRD4jTBr7/8gThObhz3PBefff7JxsYXkX3JWkBE5iYHAFGUAG/Mpk2LL6JUQ5aRxOmqT3GvLNWQ89EYU2sLneD4xT+FXleFqibL1Fqcj8ZLxWY2RAVHABAlCQbnQy3SlA/338v9mqpUMVmm1mJwPtQoubjUieB5VnxmQ971/Y9lmu4p8LtVlfEkyp2QWy913/DWG00iWFUR4DeZpnuB72fu+gsvWUEQHJtp+gQAkjT/El/nPaSK1ZvOajZNnwRBcLwofuWb+jrvIeu4ehc2pN/v71mn9hQA3Fr+N7DOe0gVq7d2WTPr1J72+/29RfGZDem9Dv9Up/ZSgE+NiG5vebkTWsdZOFPF6m1seTAiKsAjdWovX70Oj7Lis1eI4CMA8FwX7VZTHLPyK1ylqli9jjFot5riuS4AQAQPs+KXqnCrsY371gygutXrGINWY3up2PtX5bdcqYaoKjzPnTvueS6gurHxRSz4xjBUAAj89o3j/w5HiJLlH0dfj0/iFC/+PgUA7D/YRc11MuPzHj9P/CyX/Qe7V5eysse/rh8OAADdjj+37qUaQvks05Bcu5q1FoPhCFNrL+4emg2Ye7jZl1G2RrkaMhiOMB72EI9D1Ld9AF10dlp5c67EaDJBFCeAAJ5bR6PAZ6giytYo1/SeWot4EgJQJJOw8CP5VRtNIoyjGFYV1irGUYRRgQejRZStUa4V4hiD+paPeBLC3erc+NmkdxbO3fSqYlVhRCBGHkoKY40+H04mGEe32xRVRbfj/+9/y9QoS66GtJsNAF3Ut9+5uj5eJyL4+dkzAMAXjx/f2d8AELTbfwEXk8SsKK8iNcqSqyHGmLXdM9ZF2RotepZ1Clz8yIvKSa5qqCdZcYt+SnoA6Nd5Tmytwpg73kMuc5jd7/fOQl1FXsWOKQfdTvvbeaOZKyTwd74H5HC2UpZx182Y5fDmd9cqOFpFXvmOqSeAHAT+zg+3nggREREREREREREREREREREREREREREREREREVF+/wHhSl0nrhQoowAAAABJRU5ErkJggg==;labelPosition=center;align=center;fontColor=#FFFFFF;fontSize=15;" vertex="1" parent="1">
          <mxGeometry x="242" y="1375" width="90" height="90" as="geometry" />
        </mxCell>
        <mxCell id="UfV0CVszUnpOrJ8776jg-2" value="INTEL XEON- E5-2403 1.8HZ" style="shape=image;verticalLabelPosition=top;verticalAlign=middle;imageAspect=0;aspect=fixed;image=data:image/png,iVBORw0KGgoAAAANSUhEUgAAAEAAAABACAYAAACqaXHeAAAABmJLR0QA/wD/AP+gvaeTAAAF1klEQVR4nO2bT2zbdBTHP78kjZ0yuIz9AcS6sTZtmZquGxvdJDRN4jQ6OCEuSMCJCxzgggTiBohTL3BB4sCZXUCsOyOxbm02CcFYu64DNhj9O0bVbtR2F/84JPbsJHbs2CmJlu8tPz/b7/t+7/fe+z3/Am200UYbEaAbclwz5A/NMr7p0AwpNUPKZhkPi0TUB7Q6HngDiFoCui5fkoJ3gGeAhxqvUiy4C1zAZFRVxXd+gr4G0HT5KYL3YlVtkyEln2QU8YHXdU8DlGb+G4BUEhICRE1/aQ5ICaaEe4XSQIKTakqcribrGQNKbk8qCclE65CHoq7JRFF3AEze9ZT1uqAZcg3Yku4IECiaFBIwNgBYU9PikWoyfllgC7QueXDp/rCXTCrsQ621Fb0EiRdC3I9VYRC6DmhG8lDUyQ56IWB7gG7IcQlHg7wI4LPPvwj/tgAQQtCZUUkk3XOj6QYbpQUNkEqlyGQU+/frr73qOzFlZfNZNS2eA4cHSDCjKh8V9ZKvA7YxbA+wLGK/NIaNRhiIRIl8ooy8ZrCxEZ28mq6eyJtiLyCEoFN1k8927y7OfADyUaYqdBbwQiKR4OiRZ+nry4KUTM9cZWIiT6Hgv7Kquf2O7Vvp2vU48wvLzM0vFRX1Ib++vl633rEZ4MjwYYaGcvbvA0ODAIyPT3jeU4389m1byfbsAWB/rg+ApeXbvuRrGdkP9ptLHRZZb6Ohv78XgPUvv0X7aqw41tfrKS+EoLPTTb6nu4vBgV5UJQ2AqioMHx4kN5CtuF9Kyb8hyDu5OTtJtgfElQVE0lGNeNjRnvmygHfp8iwLC7fYn+tDVRU0zWBm9neWlv92yRVnXsOsf+bjzwLT0zMcODCI+saIPTZ1ZaZCrlaqs9b88OFBZmZ/Y2n5tlvzKm6vqOma+nllgdhiwMRkHikl/X1ZhBBMX7nKxMQFl0zQPL+0fJvrf/wVmHy6o6NuvWMzQKFgcu78JOfOT1a9HrbImb12wyVXjbyqpOmIQB42qQ6IWuF5kk9HIw8xZgEvNAv5TcsCTjSCvKIqdHREXrnxZwEhBE/37eXy9DX7d2dG5cXn97N9q2c/IhDmFlc4dSaPoiqk6yTf0L2ARb43u4ddTz7mmnkZw2qSyEjk/RDLE/f1d5Pt2Q3AwaF9qKrC/MIyAGPfXwJA1wyMgBubijUfMdX5IRYD/DI1y+raHQ4O7WMy/zNrd++6rkclHzXV+SF0R8gLf95cQFWUCvInjg2wc1tlQ3bx1qrtHSPHc3acsNY7xEu+oR0ha83PLy67xnXNwDSrP9apjTNOyNKVBs98fFnAK9VZbm/Npp/bnzqTb7jbN2QvIIQg05khUdaLjrLmFSWWPB8YdadBi3wyZvLp9H3yPXu7SCaTFffGiboN0Gjye5/axe6uJxga7G+oEereC5ST1/Sg5Cs7OarqJg9w/cZN/llZZerKrxQK/l88dN2opW5j9wJ6wNZ1tU6O6lHbFwomP/40VbPlpesGhmNfERDxZYETxwYwTdMV7V8+cQgppZ3nAV44nqNQKHBqLG+PvXJyGAEuuZHjOftei7xzzClXME2+Pl29/1COhmQBXTNcRY418+WbHylhR9mYqirsfLSyQKq2cQo6Vg/qDoJhA54TxU5O/bbXjdprPijq1sIiP7e4AgIX+cVbq0isgFdc83OLK0ika81bck7UGrObp6XnRYW9Lrz2AkpZQaaXJt36OhxuYxOtyDF0A90j4L391pu++pbB3gtEygKbSb78I2lE2K7jd0ZIQqVFjXvNeUACiqdEysoJ2wNi6wilks15Ysw6IhMWoX0yUcXKrQw/D7gDzevuQeDQfdVLxs8AF6F4KqxV4dD9opeMtwFMRqF48qpgtpYnSFnU2XFUdtRL1jecrevyYyF4P1btNhlS8lFGER96Xa8Zz7V7cqR01vYQpdOjLYA7QJ4Eo2pKjDX0Te2/zLQ4HngDxFHSnIWq27L/a7yNNtpoIzD+A5hi72cjJ+vGAAAAAElFTkSuQmCC;labelPosition=center;align=center;fontColor=#FFFFFF;fontSize=15;" vertex="1" parent="1">
          <mxGeometry x="453.25" y="1390" width="50" height="50" as="geometry" />
        </mxCell>
        <mxCell id="UfV0CVszUnpOrJ8776jg-3" value="192.168.1.5/24 Gb Eth" style="shape=image;verticalLabelPosition=top;verticalAlign=bottom;imageAspect=0;aspect=fixed;image=data:image/png,iVBORw0KGgoAAAANSUhEUgAAAGQAAABkCAYAAABw4pVUAAAABmJLR0QA/wD/AP+gvaeTAAADI0lEQVR4nO3dO08UYRTG8f8xxkZLIV4TDYXRCjXGG1KYmNh5ASs/AN+AxlDR8Q22N5Qm2FoYL1hYGDtoiBrvEBovDc2x2AUp1sSB8+6emX1+1ZDAM7Pz7My7+5K8AyIiIiIiIiIiIiIiIiI9ZL3akbufA24B48Ah4Diwv1f7r+g38BH4BjwHFszsTX8PKYC7m7tPuvuy19+yu0+4e9E3cbFwdz8JzAOXSu2jT14B983sfYnwIoW4+1XgETBcIj+BdeCemT2NDg4vxN3HgSfAvujsZDaAG2b2PDI0tJDObeo1cDAyN7E14KKZvYsK3BMV1Bns5hmcMgCGgIeRA31YIcAEzRvA/8cV4E5UWEiznXfIEnAqIq+GlszsTERQ1BVylsEtA+C0u49GBEUVcjsop85CzkFUIdeCcuos5BxEFXI0KKfOQs5BVCGHg3LqLKSQqE9ZHpFTd2a26/MZ+T1EAqiQZFRIMiokGRWSjApJZm+/DwBgampqa7vVam39XHV7u538bavVin5plTXqCpmdna30+6urq4WOZOcaVcjwcLV/4c/MzBQ6kp1rVCFVVb2ieiFdIdtvI6W3M0oxl9VtUO6H3Q7qmstqIBWSjApJRoUko0KSUSHJqJBkVEgyKiQZFZKMCklGhSSTYnLxX1ZWVpibmwvNnJ6eZmRkJDRzU+MnF0ucuFJlREldyCBSIcmkHkO6qTKulBwvumn8GNJNlROcfbzopnaFNJ0KSaZ2Y0hmAzmGNJ0KSUaFJKNCkokq5GdQTp39iAiJKuRrUE6dfYkIiSrkc1BOnaUq5EVQTp09iwiJKmQhKKfOHkeEaAGzGLkWMDMzBx5EZNVU2GsPW7yxc5W8pL0G4SBZNLOxqLDoZWJP0F4mdigyN7E14IKZfYgKDP2m3ll+e5L2IsNNtwFMRJYBBaZOOis9Xwe+R2cnsg7cNLPwj/tF5rLMbBG4THvh+qZZBM6XWPcdCk4udpbfHqO9wPJSqf300BJw18zGom9T2/XygS6j/H2gyxHgGHCgV/uv6BfwifZ0yOYDXd7295BERERERERERERERERECvgD+IWeXLhsdSMAAAAASUVORK5CYII=;labelPosition=center;align=center;fontSize=15;fontColor=#FFFFFF;" vertex="1" parent="1">
          <mxGeometry x="779.38" y="1375" width="80" height="80" as="geometry" />
        </mxCell>
        <mxCell id="UfV0CVszUnpOrJ8776jg-4" value="C: 10 TB" style="shape=image;verticalLabelPosition=top;verticalAlign=bottom;imageAspect=0;aspect=fixed;image=data:image/png,iVBORw0KGgoAAAANSUhEUgAAAGQAAABkCAYAAABw4pVUAAAABmJLR0QA/wD/AP+gvaeTAAAMu0lEQVR4nO2ceXhN577HPyt7ZyTDFkMNDxkcQxBiCilV1Z7LObmUai4aHSi3WqVqjCmGSAQJxamjGjVUgrqip5RDe6kphAQhmsHQOHkQBNmRZmfY+71/0FQqyI69117OXZ+/9rPWet/v793f5x3Wb7/7BRUVFRUVFRUVFRUVFRUVFRUVFRUVFRUVFRUVFRUVhSDZQtTLq4OHkEpHSkgDBLQA6tsqlj9gAm4gOI9EouFXzVd5eWlFcgYg+5fg5eP3nhDSEqCO3No14DoSY3Mupf+PXIKyGtLM228BSNMBAgO78MabAwno4I+ujg5Jsn0HMZlM5Ofncyo1jYT4LaSlnQMQIE3JuXxuiRwxyPYtNPNpOwIh4rRarZgVHiYFB/eTS7rGJMR/Q2zMMmEyCTBJb+TknEu0tqbG2gIATZu200mS2AU4z5k787kwA6BduzbUrl1bSjp6XMKOHq61mq/S63PLralpZ83Kf1cxjQZ03YIC+Wtw34rLe/f+SO/e/Xj11WAOHzkmSyiP43GxDB0Wgl+b1gJBYzt7fai145DFEAn6A4SEDKq4JoRgQUQ0A4cN5s8D+hE5f6EcoVTJk2KRJImQkEESgAQDrB2LPD1EojVAQECHypclCZPJhDCawE6eUB7Hk2IJ6FgRt5+149BaW6BTp072t24bdBqNRri5uVYsIiRJYnb4dKIWLEJjr2Xu3JnVqs9kMnHmTBrHkpI5m3aOX365gl6vp7jYgIuzMx46d5p5NcPfvx1BQYG0bdfmqXU+LRZPT8/fPtavdsNriNVXWV5eXk5CqlXs4OAgko4fqLHer8XFbN+WSEL8Nzi7ONO5Y3tatmhO48YNcXd3x9HRAYOhhLsFBeTmXiUr6wLJJ08BEsOGhfD668E4ODrWSLu0pITu3XoDGHIupzvXtA3V4bkwZO+eH4iJ+Qwvr6a8OXgAzX29q13254wsNm9JJD//DtPCJtKjZ5DZ+nIaYvUh61kwGEqIjIjm7Nl0Ph47irZtWptdR+tWLZgbPpWU1DNERS2m19GefDpxHFqtMptu25n0CRQW3uPDD8Zx88YNIiNm1MiMh+nUsT1RC2ZxPv0848dNprjYYKFILYsiDTEYShg39lMaN2rI5EnjcHa2zCjh5urKrBmTcHa0Z/KkMMrLrfqOVyMUaUjkgmjsHex5791h2NlZdprTaDSM+WAERffu8dnSlRat2xIozpA9u/dy7mw6E8b9t8XN+A2NRsOE8WP48ccDHLVxhuCPKMqQoqIiYmOWM3LEcIsNU4/Dzc2Vd94eQnRUDGVlZVbVMgdFGfLN1kR8fb1p49dSFr3Arp1w93Bj587dsuhVB8UYYjKZ2LJlGyGDrZ4uqkTImwPYHL9VVs0noRhDUlNO4+Hmird3M1l12/i1oqioiOzsi7LqPg7FGJKUdIzOXTrKritJEp07d+RY0nHZtatCMYacPZvOn5pXPyViSVq28CXtzFmbaP8RxeQPcn65QuNGjcwud+16HmvWbCAzK5u2bf0YPeodPOvozKqjUaOGbE/cZba2NVBMD7lztwAPnbvZ5VatWsuAAcGcSjlCjxe7Exe30ew6dB7u3Llzx+xy1kARhpQbjUhCoDHzRyohBFnZFxke+l84Ozvx9vChZGZdMFvfwcEBg0EZuS1FGKLVaLDTaCgtNe8FTZIkWrZoTtzajRQW3iNu7QZatfyT2folJSU4OTmZXc4aKMIQAA8PNwoLC80u99GH77N7914Cu79CcvJJRo4wfx/C3bsF1KmjjH17ipnUfXx9yLmSi6eneV9M/fp1mT1r8jNpX7uWh5dX02eqw1Iopof4+bXi0uUcm2j/nJmNf/u2NtH+I4oxpGfPHhxLOmHROoUQ/HTwKEuXfU7WY97ETSYTySdS6f5iN4tq1xTFGNLOvw2G0lIu/3LFIvVduHiZsBnz2ffDAboEdmXxkhXo9Y/OUefOZ+Lu7oavj49FdJ8VxcwhkiQRGjqEHf/4ngnjPqhxPQUFer7etJUzaemM/fgD/rP/X5EkiYyMLE6dPkuvl37f5CCEYMvWRIa9FWKJJlgExfQQgIGD+pOddZHMGiT6jEYj3+3cwyefTueFRg1J/HYL/QcEAxD35XpSTqY+ktZPPpFKcXExf/lL36qqtAmK6SEAjo6OTA2bSOyS5URHhePkVL19VGfOnCPuq69p0qQxX637Aq8HGWO9vpDZs+ZRcKeAyIiZ6HQeFWX0+kLWrU9gzryZitqBopxIHtCrV08OHzrKqi++YvzY0dg94e09L+8m6zYkkJt7lYmTxvNy75cq7mX8nMmUKTMI7NKJjz96v1IWoKysjJjYv/EffV8jMLCLVdtjLjYbssqNRnr2eI1OAUH07tWXvLwbFfemTpuIwVDCuvWbMZnEI2UNhhLiE7YRNn0enbt0ZHtiQiUzEhP/wdiPJjD8rRDeGjb4ETP+vmY9Os86jB03xrqNrAE2M8RUXk5ZaSlTImbg3zWAiIjointarZZlny0h/84dlq9cTUlJCXB/Ej585BjjJ4ShLyxiy7aNjHz/PewdHID7KZA54QuI37iZ+XOn06VzQCVNvb6QiMhYjEYTC6Mj0Gpk+XuMWShiUg/s0Y3MzGz27z9Ycc3Z2YllyxbRuEkTJk0N59CR48wOj2Lnrr1EL45g4aII6tWrV/H8v/6Vyztvj+LXonvMnzedhg0bVNwTQnAy5TTTps+jQ4f2LIldWO35SW4UMYdotFr6BP+ZhVGLCQoKxPHBpmh7BwdGjR5BevrPrFsfz4cfjWbgwP6PzCs/HTjI/HkLGTrkDfq88vvQJYQgIyObhK3b0evvMTt8Ot26d5W1beaiCEMAvHy9qdfwBRbHfMbM6VMoNxrZvm0HX3yxlr59X2XFylhcXWtXKlNuNLLqb6v59ttdhE39hAYN6nP16nWuXrtORkY2x5NP4uzkwtDQEIKD+2Fvb2+j1lUfxRgC0Lvfq6xbuYYWzX3Zvm0HOp2O1WtWVPkWfTv/NtOmzeJKTi5CCMJmzKNWrVp46HR4e3vh79+WkKEhtGjRXPZ2PAuKMsTJyQl3nQdxcRuYMmUCffq8XOVzp06fYcbU2bw+qD9/X73iiUvj5w1FGZKWepq6np6sXr28Yh55GCEEmzZtZsP6eObMmUGQQhKClkRRhty4lsdLvXpWaUZRURHz5kRy7dp1Nmz8khdeaFBFDc8/iurrLrVcuJ53/ZHrFy5eZHjoSOy0GpYuW4SLiwulD95N/t1QVA9p3b4N29ZtZsiQwfh4eQHw/a5/Eh0dgxCCW4eTOHI4CYDSktKKTdJ1POuw74edleq6q9dz/eZNhBCMHzOBWi7ORMZEMn7MBPJv5Vd6tm5dT/657zvrN7AaKMqQevXr0/O1l3l3+Che7NGdUkMpWdnZDBkRSp16nlWWKS8vZ8WC2MrXjEaGD3uP0DEjABj5yf10flpmZsXnSuUjl1qhNTXDZoZID1ZGl7Iu4PPQ0rRtgD9evt5cyrqIg6MDISNDcXiQGqkupvJybt7Mf/qDCsRmc4i9vT1Lly0i6X8PsWPTNm7ful1xr7abK/6dO9ChS4DZZpjLpcwL1K5dy6oa5mDTSb17UCDbEzfzxqD+bFufwP7d+ygxyDdZnz6ewqF9+1m5MvbpD8uEzVdZWq2WwYMHsj1xM15NmrB2+WpSkk5UmXa3FEIIjv10hIy0dNZv+JJWreX5g1B1UNzBAVmZ2UQtXELa6ap3ozdt2oSXXunFpvXxTJ01mTWfx2EH7HlolVRuNNLn5b7cu/f40/naB/izdOki3N3dntqG/zcnOezd+yNRUUvQaDTMmTuTHjZ8835SLHIaYvUhy9PT0wj3NyE8zPNyPBOA8ffh0/hIYQtjdUNSUlLKgDtGo1EqKNBXuve8HM9069at3z7mWTsOub6F8wCnUk9VXPjtSKRdW3ewf88PhIeHyRTKozwtltTU0/efg3Srx2JtAYBm3m0ngVjctWtnVq1eLoekxTCZTIS+NUJkZmRJSNLInEvn1lpTT54j/oT2SyA/OfkkO3YoI2dUXb7emEBmRpYEXJFM9+KtrSfLtou7d68b3HUNrkkw8MjhJFG3bl2ptYLW/lUhhODrjQmsWP65EAIhJGl4zuWs89bWlW0fTMHdG2nuHvUQQvQ+ePAwJ06k4OToSG03V5ycnBTxq195eTk3btzkwIFDRMyLEt99970kBEII6dMrl8+Z/+fFGiD7cdLNfNoMQ7AUGc4vtAC5Aj68cjldtnHWJud7t2zZ0rW4VPOuhF1/EH7cN0cJPwWUAXlInBWCHaYyt425uUnFtg5KRUVFRUVFRUVFRUVFRUVFRUVFRUVFRUVFRUVFRcUm/B+Rk70hDCovxgAAAABJRU5ErkJggg==;labelPosition=center;align=center;fontColor=#FFFFFF;fontSize=15;" vertex="1" parent="1">
          <mxGeometry x="622.5" y="1375" width="85" height="85" as="geometry" />
        </mxCell>
        <mxCell id="UfV0CVszUnpOrJ8776jg-6" value="64GB RAM DDR4" style="shape=image;verticalLabelPosition=top;verticalAlign=bottom;imageAspect=0;aspect=fixed;image=data:image/png,iVBORw0KGgoAAAANSUhEUgAAAGQAAABkCAYAAABw4pVUAAAABmJLR0QA/wD/AP+gvaeTAAAD7klEQVR4nO3azW7jVBQH8P+5juM2SeMIByEKVaV5DEawZjRCYseK9TwCHwtAYtE+w2xZsWKBBvZM4TGQZtRWQpNo6tB8+CP3sGhTDVXjxHbjZpr/b1X1ntgn59zr6zgBiIiIiIiIiIiIiIiIiIiIiIiIiIiIiIiIiIiIKiFZg6pa74fhj1D5EoL3q0rqXhKcQuWnwN/5TkTi+WEZemeDQ0C/uv3sNpkcdjvtb+aOZr20F4YnUOz6rSZqjnP7uW2QNJ0iHA4BwWnX9z+YF2cyj6LYBcBm3IJa7bKGlzWdG1fmJIPzEeI0gcjNC01V4bkudpqNjYwvolRD4jTBr7/8gThObhz3PBefff7JxsYXkX3JWkBE5iYHAFGUAG/Mpk2LL6JUQ5aRxOmqT3GvLNWQ89EYU2sLneD4xT+FXleFqibL1Fqcj8ZLxWY2RAVHABAlCQbnQy3SlA/338v9mqpUMVmm1mJwPtQoubjUieB5VnxmQ971/Y9lmu4p8LtVlfEkyp2QWy913/DWG00iWFUR4DeZpnuB72fu+gsvWUEQHJtp+gQAkjT/El/nPaSK1ZvOajZNnwRBcLwofuWb+jrvIeu4ehc2pN/v71mn9hQA3Fr+N7DOe0gVq7d2WTPr1J72+/29RfGZDem9Dv9Up/ZSgE+NiG5vebkTWsdZOFPF6m1seTAiKsAjdWovX70Oj7Lis1eI4CMA8FwX7VZTHLPyK1ylqli9jjFot5riuS4AQAQPs+KXqnCrsY371gygutXrGINWY3up2PtX5bdcqYaoKjzPnTvueS6gurHxRSz4xjBUAAj89o3j/w5HiJLlH0dfj0/iFC/+PgUA7D/YRc11MuPzHj9P/CyX/Qe7V5eysse/rh8OAADdjj+37qUaQvks05Bcu5q1FoPhCFNrL+4emg2Ye7jZl1G2RrkaMhiOMB72EI9D1Ld9AF10dlp5c67EaDJBFCeAAJ5bR6PAZ6giytYo1/SeWot4EgJQJJOw8CP5VRtNIoyjGFYV1irGUYRRgQejRZStUa4V4hiD+paPeBLC3erc+NmkdxbO3fSqYlVhRCBGHkoKY40+H04mGEe32xRVRbfj/+9/y9QoS66GtJsNAF3Ut9+5uj5eJyL4+dkzAMAXjx/f2d8AELTbfwEXk8SsKK8iNcqSqyHGmLXdM9ZF2RotepZ1Clz8yIvKSa5qqCdZcYt+SnoA6Nd5Tmytwpg73kMuc5jd7/fOQl1FXsWOKQfdTvvbeaOZKyTwd74H5HC2UpZx182Y5fDmd9cqOFpFXvmOqSeAHAT+zg+3nggREREREREREREREREREREREREREREREREREVF+/wHhSl0nrhQoowAAAABJRU5ErkJggg==;labelPosition=center;align=center;fontColor=#FFFFFF;fontSize=15;" vertex="1" parent="1">
          <mxGeometry x="241.18" y="2060" width="90" height="90" as="geometry" />
        </mxCell>
        <mxCell id="UfV0CVszUnpOrJ8776jg-7" value="INTEL XEON- E3-1225 3.30GHZ" style="shape=image;verticalLabelPosition=top;verticalAlign=middle;imageAspect=0;aspect=fixed;image=data:image/png,iVBORw0KGgoAAAANSUhEUgAAAEAAAABACAYAAACqaXHeAAAABmJLR0QA/wD/AP+gvaeTAAAF1klEQVR4nO2bT2zbdBTHP78kjZ0yuIz9AcS6sTZtmZquGxvdJDRN4jQ6OCEuSMCJCxzgggTiBohTL3BB4sCZXUCsOyOxbm02CcFYu64DNhj9O0bVbtR2F/84JPbsJHbs2CmJlu8tPz/b7/t+7/fe+z3/Am200UYbEaAbclwz5A/NMr7p0AwpNUPKZhkPi0TUB7Q6HngDiFoCui5fkoJ3gGeAhxqvUiy4C1zAZFRVxXd+gr4G0HT5KYL3YlVtkyEln2QU8YHXdU8DlGb+G4BUEhICRE1/aQ5ICaaEe4XSQIKTakqcribrGQNKbk8qCclE65CHoq7JRFF3AEze9ZT1uqAZcg3Yku4IECiaFBIwNgBYU9PikWoyfllgC7QueXDp/rCXTCrsQ621Fb0EiRdC3I9VYRC6DmhG8lDUyQ56IWB7gG7IcQlHg7wI4LPPvwj/tgAQQtCZUUkk3XOj6QYbpQUNkEqlyGQU+/frr73qOzFlZfNZNS2eA4cHSDCjKh8V9ZKvA7YxbA+wLGK/NIaNRhiIRIl8ooy8ZrCxEZ28mq6eyJtiLyCEoFN1k8927y7OfADyUaYqdBbwQiKR4OiRZ+nry4KUTM9cZWIiT6Hgv7Kquf2O7Vvp2vU48wvLzM0vFRX1Ib++vl633rEZ4MjwYYaGcvbvA0ODAIyPT3jeU4389m1byfbsAWB/rg+ApeXbvuRrGdkP9ptLHRZZb6Ohv78XgPUvv0X7aqw41tfrKS+EoLPTTb6nu4vBgV5UJQ2AqioMHx4kN5CtuF9Kyb8hyDu5OTtJtgfElQVE0lGNeNjRnvmygHfp8iwLC7fYn+tDVRU0zWBm9neWlv92yRVnXsOsf+bjzwLT0zMcODCI+saIPTZ1ZaZCrlaqs9b88OFBZmZ/Y2n5tlvzKm6vqOma+nllgdhiwMRkHikl/X1ZhBBMX7nKxMQFl0zQPL+0fJvrf/wVmHy6o6NuvWMzQKFgcu78JOfOT1a9HrbImb12wyVXjbyqpOmIQB42qQ6IWuF5kk9HIw8xZgEvNAv5TcsCTjSCvKIqdHREXrnxZwEhBE/37eXy9DX7d2dG5cXn97N9q2c/IhDmFlc4dSaPoiqk6yTf0L2ARb43u4ddTz7mmnkZw2qSyEjk/RDLE/f1d5Pt2Q3AwaF9qKrC/MIyAGPfXwJA1wyMgBubijUfMdX5IRYD/DI1y+raHQ4O7WMy/zNrd++6rkclHzXV+SF0R8gLf95cQFWUCvInjg2wc1tlQ3bx1qrtHSPHc3acsNY7xEu+oR0ha83PLy67xnXNwDSrP9apjTNOyNKVBs98fFnAK9VZbm/Npp/bnzqTb7jbN2QvIIQg05khUdaLjrLmFSWWPB8YdadBi3wyZvLp9H3yPXu7SCaTFffGiboN0Gjye5/axe6uJxga7G+oEereC5ST1/Sg5Cs7OarqJg9w/cZN/llZZerKrxQK/l88dN2opW5j9wJ6wNZ1tU6O6lHbFwomP/40VbPlpesGhmNfERDxZYETxwYwTdMV7V8+cQgppZ3nAV44nqNQKHBqLG+PvXJyGAEuuZHjOftei7xzzClXME2+Pl29/1COhmQBXTNcRY418+WbHylhR9mYqirsfLSyQKq2cQo6Vg/qDoJhA54TxU5O/bbXjdprPijq1sIiP7e4AgIX+cVbq0isgFdc83OLK0ika81bck7UGrObp6XnRYW9Lrz2AkpZQaaXJt36OhxuYxOtyDF0A90j4L391pu++pbB3gtEygKbSb78I2lE2K7jd0ZIQqVFjXvNeUACiqdEysoJ2wNi6wilks15Ysw6IhMWoX0yUcXKrQw/D7gDzevuQeDQfdVLxs8AF6F4KqxV4dD9opeMtwFMRqF48qpgtpYnSFnU2XFUdtRL1jecrevyYyF4P1btNhlS8lFGER96Xa8Zz7V7cqR01vYQpdOjLYA7QJ4Eo2pKjDX0Te2/zLQ4HngDxFHSnIWq27L/a7yNNtpoIzD+A5hi72cjJ+vGAAAAAElFTkSuQmCC;labelPosition=center;align=center;fontColor=#FFFFFF;fontSize=15;direction=south;" vertex="1" parent="1">
          <mxGeometry x="452.43" y="2075" width="50" height="50" as="geometry" />
        </mxCell>
        <mxCell id="UfV0CVszUnpOrJ8776jg-8" value="192.168.1.6/24 Gb Eth" style="shape=image;verticalLabelPosition=top;verticalAlign=bottom;imageAspect=0;aspect=fixed;image=data:image/png,iVBORw0KGgoAAAANSUhEUgAAAGQAAABkCAYAAABw4pVUAAAABmJLR0QA/wD/AP+gvaeTAAADI0lEQVR4nO3dO08UYRTG8f8xxkZLIV4TDYXRCjXGG1KYmNh5ASs/AN+AxlDR8Q22N5Qm2FoYL1hYGDtoiBrvEBovDc2x2AUp1sSB8+6emX1+1ZDAM7Pz7My7+5K8AyIiIiIiIiIiIiIiIiI9ZL3akbufA24B48Ah4Diwv1f7r+g38BH4BjwHFszsTX8PKYC7m7tPuvuy19+yu0+4e9E3cbFwdz8JzAOXSu2jT14B983sfYnwIoW4+1XgETBcIj+BdeCemT2NDg4vxN3HgSfAvujsZDaAG2b2PDI0tJDObeo1cDAyN7E14KKZvYsK3BMV1Bns5hmcMgCGgIeRA31YIcAEzRvA/8cV4E5UWEiznXfIEnAqIq+GlszsTERQ1BVylsEtA+C0u49GBEUVcjsop85CzkFUIdeCcuos5BxEFXI0KKfOQs5BVCGHg3LqLKSQqE9ZHpFTd2a26/MZ+T1EAqiQZFRIMiokGRWSjApJZm+/DwBgampqa7vVam39XHV7u538bavVin5plTXqCpmdna30+6urq4WOZOcaVcjwcLV/4c/MzBQ6kp1rVCFVVb2ieiFdIdtvI6W3M0oxl9VtUO6H3Q7qmstqIBWSjApJRoUko0KSUSHJqJBkVEgyKiQZFZKMCklGhSSTYnLxX1ZWVpibmwvNnJ6eZmRkJDRzU+MnF0ucuFJlREldyCBSIcmkHkO6qTKulBwvumn8GNJNlROcfbzopnaFNJ0KSaZ2Y0hmAzmGNJ0KSUaFJKNCkokq5GdQTp39iAiJKuRrUE6dfYkIiSrkc1BOnaUq5EVQTp09iwiJKmQhKKfOHkeEaAGzGLkWMDMzBx5EZNVU2GsPW7yxc5W8pL0G4SBZNLOxqLDoZWJP0F4mdigyN7E14IKZfYgKDP2m3ll+e5L2IsNNtwFMRJYBBaZOOis9Xwe+R2cnsg7cNLPwj/tF5rLMbBG4THvh+qZZBM6XWPcdCk4udpbfHqO9wPJSqf300BJw18zGom9T2/XygS6j/H2gyxHgGHCgV/uv6BfwifZ0yOYDXd7295BERERERERERERERERECvgD+IWeXLhsdSMAAAAASUVORK5CYII=;labelPosition=center;align=center;fontSize=15;fontColor=#FFFFFF;" vertex="1" parent="1">
          <mxGeometry x="778.56" y="2060" width="80" height="80" as="geometry" />
        </mxCell>
        <mxCell id="UfV0CVszUnpOrJ8776jg-9" value="C: 7 TB" style="shape=image;verticalLabelPosition=top;verticalAlign=bottom;imageAspect=0;aspect=fixed;image=data:image/png,iVBORw0KGgoAAAANSUhEUgAAAGQAAABkCAYAAABw4pVUAAAABmJLR0QA/wD/AP+gvaeTAAAMu0lEQVR4nO2ceXhN577HPyt7ZyTDFkMNDxkcQxBiCilV1Z7LObmUai4aHSi3WqVqjCmGSAQJxamjGjVUgrqip5RDe6kphAQhmsHQOHkQBNmRZmfY+71/0FQqyI69117OXZ+/9rPWet/v793f5x3Wb7/7BRUVFRUVFRUVFRUVFRUVFRUVFRUVFRUVFRUVFRUVhSDZQtTLq4OHkEpHSkgDBLQA6tsqlj9gAm4gOI9EouFXzVd5eWlFcgYg+5fg5eP3nhDSEqCO3No14DoSY3Mupf+PXIKyGtLM228BSNMBAgO78MabAwno4I+ujg5Jsn0HMZlM5Ofncyo1jYT4LaSlnQMQIE3JuXxuiRwxyPYtNPNpOwIh4rRarZgVHiYFB/eTS7rGJMR/Q2zMMmEyCTBJb+TknEu0tqbG2gIATZu200mS2AU4z5k787kwA6BduzbUrl1bSjp6XMKOHq61mq/S63PLralpZ83Kf1cxjQZ03YIC+Wtw34rLe/f+SO/e/Xj11WAOHzkmSyiP43GxDB0Wgl+b1gJBYzt7fai145DFEAn6A4SEDKq4JoRgQUQ0A4cN5s8D+hE5f6EcoVTJk2KRJImQkEESgAQDrB2LPD1EojVAQECHypclCZPJhDCawE6eUB7Hk2IJ6FgRt5+149BaW6BTp072t24bdBqNRri5uVYsIiRJYnb4dKIWLEJjr2Xu3JnVqs9kMnHmTBrHkpI5m3aOX365gl6vp7jYgIuzMx46d5p5NcPfvx1BQYG0bdfmqXU+LRZPT8/fPtavdsNriNVXWV5eXk5CqlXs4OAgko4fqLHer8XFbN+WSEL8Nzi7ONO5Y3tatmhO48YNcXd3x9HRAYOhhLsFBeTmXiUr6wLJJ08BEsOGhfD668E4ODrWSLu0pITu3XoDGHIupzvXtA3V4bkwZO+eH4iJ+Qwvr6a8OXgAzX29q13254wsNm9JJD//DtPCJtKjZ5DZ+nIaYvUh61kwGEqIjIjm7Nl0Ph47irZtWptdR+tWLZgbPpWU1DNERS2m19GefDpxHFqtMptu25n0CRQW3uPDD8Zx88YNIiNm1MiMh+nUsT1RC2ZxPv0848dNprjYYKFILYsiDTEYShg39lMaN2rI5EnjcHa2zCjh5urKrBmTcHa0Z/KkMMrLrfqOVyMUaUjkgmjsHex5791h2NlZdprTaDSM+WAERffu8dnSlRat2xIozpA9u/dy7mw6E8b9t8XN+A2NRsOE8WP48ccDHLVxhuCPKMqQoqIiYmOWM3LEcIsNU4/Dzc2Vd94eQnRUDGVlZVbVMgdFGfLN1kR8fb1p49dSFr3Arp1w93Bj587dsuhVB8UYYjKZ2LJlGyGDrZ4uqkTImwPYHL9VVs0noRhDUlNO4+Hmird3M1l12/i1oqioiOzsi7LqPg7FGJKUdIzOXTrKritJEp07d+RY0nHZtatCMYacPZvOn5pXPyViSVq28CXtzFmbaP8RxeQPcn65QuNGjcwud+16HmvWbCAzK5u2bf0YPeodPOvozKqjUaOGbE/cZba2NVBMD7lztwAPnbvZ5VatWsuAAcGcSjlCjxe7Exe30ew6dB7u3Llzx+xy1kARhpQbjUhCoDHzRyohBFnZFxke+l84Ozvx9vChZGZdMFvfwcEBg0EZuS1FGKLVaLDTaCgtNe8FTZIkWrZoTtzajRQW3iNu7QZatfyT2folJSU4OTmZXc4aKMIQAA8PNwoLC80u99GH77N7914Cu79CcvJJRo4wfx/C3bsF1KmjjH17ipnUfXx9yLmSi6eneV9M/fp1mT1r8jNpX7uWh5dX02eqw1Iopof4+bXi0uUcm2j/nJmNf/u2NtH+I4oxpGfPHhxLOmHROoUQ/HTwKEuXfU7WY97ETSYTySdS6f5iN4tq1xTFGNLOvw2G0lIu/3LFIvVduHiZsBnz2ffDAboEdmXxkhXo9Y/OUefOZ+Lu7oavj49FdJ8VxcwhkiQRGjqEHf/4ngnjPqhxPQUFer7etJUzaemM/fgD/rP/X5EkiYyMLE6dPkuvl37f5CCEYMvWRIa9FWKJJlgExfQQgIGD+pOddZHMGiT6jEYj3+3cwyefTueFRg1J/HYL/QcEAxD35XpSTqY+ktZPPpFKcXExf/lL36qqtAmK6SEAjo6OTA2bSOyS5URHhePkVL19VGfOnCPuq69p0qQxX637Aq8HGWO9vpDZs+ZRcKeAyIiZ6HQeFWX0+kLWrU9gzryZitqBopxIHtCrV08OHzrKqi++YvzY0dg94e09L+8m6zYkkJt7lYmTxvNy75cq7mX8nMmUKTMI7NKJjz96v1IWoKysjJjYv/EffV8jMLCLVdtjLjYbssqNRnr2eI1OAUH07tWXvLwbFfemTpuIwVDCuvWbMZnEI2UNhhLiE7YRNn0enbt0ZHtiQiUzEhP/wdiPJjD8rRDeGjb4ETP+vmY9Os86jB03xrqNrAE2M8RUXk5ZaSlTImbg3zWAiIjointarZZlny0h/84dlq9cTUlJCXB/Ej585BjjJ4ShLyxiy7aNjHz/PewdHID7KZA54QuI37iZ+XOn06VzQCVNvb6QiMhYjEYTC6Mj0Gpk+XuMWShiUg/s0Y3MzGz27z9Ycc3Z2YllyxbRuEkTJk0N59CR48wOj2Lnrr1EL45g4aII6tWrV/H8v/6Vyztvj+LXonvMnzedhg0bVNwTQnAy5TTTps+jQ4f2LIldWO35SW4UMYdotFr6BP+ZhVGLCQoKxPHBpmh7BwdGjR5BevrPrFsfz4cfjWbgwP6PzCs/HTjI/HkLGTrkDfq88vvQJYQgIyObhK3b0evvMTt8Ot26d5W1beaiCEMAvHy9qdfwBRbHfMbM6VMoNxrZvm0HX3yxlr59X2XFylhcXWtXKlNuNLLqb6v59ttdhE39hAYN6nP16nWuXrtORkY2x5NP4uzkwtDQEIKD+2Fvb2+j1lUfxRgC0Lvfq6xbuYYWzX3Zvm0HOp2O1WtWVPkWfTv/NtOmzeJKTi5CCMJmzKNWrVp46HR4e3vh79+WkKEhtGjRXPZ2PAuKMsTJyQl3nQdxcRuYMmUCffq8XOVzp06fYcbU2bw+qD9/X73iiUvj5w1FGZKWepq6np6sXr28Yh55GCEEmzZtZsP6eObMmUGQQhKClkRRhty4lsdLvXpWaUZRURHz5kRy7dp1Nmz8khdeaFBFDc8/iurrLrVcuJ53/ZHrFy5eZHjoSOy0GpYuW4SLiwulD95N/t1QVA9p3b4N29ZtZsiQwfh4eQHw/a5/Eh0dgxCCW4eTOHI4CYDSktKKTdJ1POuw74edleq6q9dz/eZNhBCMHzOBWi7ORMZEMn7MBPJv5Vd6tm5dT/657zvrN7AaKMqQevXr0/O1l3l3+Che7NGdUkMpWdnZDBkRSp16nlWWKS8vZ8WC2MrXjEaGD3uP0DEjABj5yf10flpmZsXnSuUjl1qhNTXDZoZID1ZGl7Iu4PPQ0rRtgD9evt5cyrqIg6MDISNDcXiQGqkupvJybt7Mf/qDCsRmc4i9vT1Lly0i6X8PsWPTNm7ful1xr7abK/6dO9ChS4DZZpjLpcwL1K5dy6oa5mDTSb17UCDbEzfzxqD+bFufwP7d+ygxyDdZnz6ewqF9+1m5MvbpD8uEzVdZWq2WwYMHsj1xM15NmrB2+WpSkk5UmXa3FEIIjv10hIy0dNZv+JJWreX5g1B1UNzBAVmZ2UQtXELa6ap3ozdt2oSXXunFpvXxTJ01mTWfx2EH7HlolVRuNNLn5b7cu/f40/naB/izdOki3N3dntqG/zcnOezd+yNRUUvQaDTMmTuTHjZ8835SLHIaYvUhy9PT0wj3NyE8zPNyPBOA8ffh0/hIYQtjdUNSUlLKgDtGo1EqKNBXuve8HM9069at3z7mWTsOub6F8wCnUk9VXPjtSKRdW3ewf88PhIeHyRTKozwtltTU0/efg3Srx2JtAYBm3m0ngVjctWtnVq1eLoekxTCZTIS+NUJkZmRJSNLInEvn1lpTT54j/oT2SyA/OfkkO3YoI2dUXb7emEBmRpYEXJFM9+KtrSfLtou7d68b3HUNrkkw8MjhJFG3bl2ptYLW/lUhhODrjQmsWP65EAIhJGl4zuWs89bWlW0fTMHdG2nuHvUQQvQ+ePAwJ06k4OToSG03V5ycnBTxq195eTk3btzkwIFDRMyLEt99970kBEII6dMrl8+Z/+fFGiD7cdLNfNoMQ7AUGc4vtAC5Aj68cjldtnHWJud7t2zZ0rW4VPOuhF1/EH7cN0cJPwWUAXlInBWCHaYyt425uUnFtg5KRUVFRUVFRUVFRUVFRUVFRUVFRUVFRUVFRUVFRcUm/B+Rk70hDCovxgAAAABJRU5ErkJggg==;labelPosition=center;align=center;fontColor=#FFFFFF;fontSize=15;" vertex="1" parent="1">
          <mxGeometry x="621.68" y="2060" width="85" height="85" as="geometry" />
        </mxCell>
        <mxCell id="UfV0CVszUnpOrJ8776jg-10" value="189.196.47.34:3389:443 " style="shape=image;verticalLabelPosition=top;verticalAlign=bottom;imageAspect=0;aspect=fixed;image=data:image/png,iVBORw0KGgoAAAANSUhEUgAAAGQAAABkCAYAAABw4pVUAAAABmJLR0QA/wD/AP+gvaeTAAADI0lEQVR4nO3dO08UYRTG8f8xxkZLIV4TDYXRCjXGG1KYmNh5ASs/AN+AxlDR8Q22N5Qm2FoYL1hYGDtoiBrvEBovDc2x2AUp1sSB8+6emX1+1ZDAM7Pz7My7+5K8AyIiIiIiIiIiIiIiIiI9ZL3akbufA24B48Ah4Diwv1f7r+g38BH4BjwHFszsTX8PKYC7m7tPuvuy19+yu0+4e9E3cbFwdz8JzAOXSu2jT14B983sfYnwIoW4+1XgETBcIj+BdeCemT2NDg4vxN3HgSfAvujsZDaAG2b2PDI0tJDObeo1cDAyN7E14KKZvYsK3BMV1Bns5hmcMgCGgIeRA31YIcAEzRvA/8cV4E5UWEiznXfIEnAqIq+GlszsTERQ1BVylsEtA+C0u49GBEUVcjsop85CzkFUIdeCcuos5BxEFXI0KKfOQs5BVCGHg3LqLKSQqE9ZHpFTd2a26/MZ+T1EAqiQZFRIMiokGRWSjApJZm+/DwBgampqa7vVam39XHV7u538bavVin5plTXqCpmdna30+6urq4WOZOcaVcjwcLV/4c/MzBQ6kp1rVCFVVb2ieiFdIdtvI6W3M0oxl9VtUO6H3Q7qmstqIBWSjApJRoUko0KSUSHJqJBkVEgyKiQZFZKMCklGhSSTYnLxX1ZWVpibmwvNnJ6eZmRkJDRzU+MnF0ucuFJlREldyCBSIcmkHkO6qTKulBwvumn8GNJNlROcfbzopnaFNJ0KSaZ2Y0hmAzmGNJ0KSUaFJKNCkokq5GdQTp39iAiJKuRrUE6dfYkIiSrkc1BOnaUq5EVQTp09iwiJKmQhKKfOHkeEaAGzGLkWMDMzBx5EZNVU2GsPW7yxc5W8pL0G4SBZNLOxqLDoZWJP0F4mdigyN7E14IKZfYgKDP2m3ll+e5L2IsNNtwFMRJYBBaZOOis9Xwe+R2cnsg7cNLPwj/tF5rLMbBG4THvh+qZZBM6XWPcdCk4udpbfHqO9wPJSqf300BJw18zGom9T2/XygS6j/H2gyxHgGHCgV/uv6BfwifZ0yOYDXd7295BERERERERERERERERECvgD+IWeXLhsdSMAAAAASUVORK5CYII=;labelPosition=center;align=center;fontSize=15;fontColor=#FFFFFF;" vertex="1" parent="1">
          <mxGeometry x="974.9999999999998" y="2062.5" width="80" height="80" as="geometry" />
        </mxCell>
        <mxCell id="UfV0CVszUnpOrJ8776jg-13" value="12GB RAM DDR3" style="shape=image;verticalLabelPosition=top;verticalAlign=bottom;imageAspect=0;aspect=fixed;image=data:image/png,iVBORw0KGgoAAAANSUhEUgAAAGQAAABkCAYAAABw4pVUAAAABmJLR0QA/wD/AP+gvaeTAAAD7klEQVR4nO3azW7jVBQH8P+5juM2SeMIByEKVaV5DEawZjRCYseK9TwCHwtAYtE+w2xZsWKBBvZM4TGQZtRWQpNo6tB8+CP3sGhTDVXjxHbjZpr/b1X1ntgn59zr6zgBiIiIiIiIiIiIiIiIiIiIiIiIiIiIiIiIiIiIKiFZg6pa74fhj1D5EoL3q0rqXhKcQuWnwN/5TkTi+WEZemeDQ0C/uv3sNpkcdjvtb+aOZr20F4YnUOz6rSZqjnP7uW2QNJ0iHA4BwWnX9z+YF2cyj6LYBcBm3IJa7bKGlzWdG1fmJIPzEeI0gcjNC01V4bkudpqNjYwvolRD4jTBr7/8gThObhz3PBefff7JxsYXkX3JWkBE5iYHAFGUAG/Mpk2LL6JUQ5aRxOmqT3GvLNWQ89EYU2sLneD4xT+FXleFqibL1Fqcj8ZLxWY2RAVHABAlCQbnQy3SlA/338v9mqpUMVmm1mJwPtQoubjUieB5VnxmQ971/Y9lmu4p8LtVlfEkyp2QWy913/DWG00iWFUR4DeZpnuB72fu+gsvWUEQHJtp+gQAkjT/El/nPaSK1ZvOajZNnwRBcLwofuWb+jrvIeu4ehc2pN/v71mn9hQA3Fr+N7DOe0gVq7d2WTPr1J72+/29RfGZDem9Dv9Up/ZSgE+NiG5vebkTWsdZOFPF6m1seTAiKsAjdWovX70Oj7Lis1eI4CMA8FwX7VZTHLPyK1ylqli9jjFot5riuS4AQAQPs+KXqnCrsY371gygutXrGINWY3up2PtX5bdcqYaoKjzPnTvueS6gurHxRSz4xjBUAAj89o3j/w5HiJLlH0dfj0/iFC/+PgUA7D/YRc11MuPzHj9P/CyX/Qe7V5eysse/rh8OAADdjj+37qUaQvks05Bcu5q1FoPhCFNrL+4emg2Ye7jZl1G2RrkaMhiOMB72EI9D1Ld9AF10dlp5c67EaDJBFCeAAJ5bR6PAZ6giytYo1/SeWot4EgJQJJOw8CP5VRtNIoyjGFYV1irGUYRRgQejRZStUa4V4hiD+paPeBLC3erc+NmkdxbO3fSqYlVhRCBGHkoKY40+H04mGEe32xRVRbfj/+9/y9QoS66GtJsNAF3Ut9+5uj5eJyL4+dkzAMAXjx/f2d8AELTbfwEXk8SsKK8iNcqSqyHGmLXdM9ZF2RotepZ1Clz8yIvKSa5qqCdZcYt+SnoA6Nd5Tmytwpg73kMuc5jd7/fOQl1FXsWOKQfdTvvbeaOZKyTwd74H5HC2UpZx182Y5fDmd9cqOFpFXvmOqSeAHAT+zg+3nggREREREREREREREREREREREREREREREREREVF+/wHhSl0nrhQoowAAAABJRU5ErkJggg==;labelPosition=center;align=center;fontColor=#FFFFFF;fontSize=15;" vertex="1" parent="1">
          <mxGeometry x="234.7600000000001" y="672.75" width="90" height="90" as="geometry" />
        </mxCell>
        <mxCell id="UfV0CVszUnpOrJ8776jg-14" value="INTEL XEON- E3-1225 3.20GHZ " style="shape=image;verticalLabelPosition=top;verticalAlign=middle;imageAspect=0;aspect=fixed;image=data:image/png,iVBORw0KGgoAAAANSUhEUgAAAEAAAABACAYAAACqaXHeAAAABmJLR0QA/wD/AP+gvaeTAAAF1klEQVR4nO2bT2zbdBTHP78kjZ0yuIz9AcS6sTZtmZquGxvdJDRN4jQ6OCEuSMCJCxzgggTiBohTL3BB4sCZXUCsOyOxbm02CcFYu64DNhj9O0bVbtR2F/84JPbsJHbs2CmJlu8tPz/b7/t+7/fe+z3/Am200UYbEaAbclwz5A/NMr7p0AwpNUPKZhkPi0TUB7Q6HngDiFoCui5fkoJ3gGeAhxqvUiy4C1zAZFRVxXd+gr4G0HT5KYL3YlVtkyEln2QU8YHXdU8DlGb+G4BUEhICRE1/aQ5ICaaEe4XSQIKTakqcribrGQNKbk8qCclE65CHoq7JRFF3AEze9ZT1uqAZcg3Yku4IECiaFBIwNgBYU9PikWoyfllgC7QueXDp/rCXTCrsQ621Fb0EiRdC3I9VYRC6DmhG8lDUyQ56IWB7gG7IcQlHg7wI4LPPvwj/tgAQQtCZUUkk3XOj6QYbpQUNkEqlyGQU+/frr73qOzFlZfNZNS2eA4cHSDCjKh8V9ZKvA7YxbA+wLGK/NIaNRhiIRIl8ooy8ZrCxEZ28mq6eyJtiLyCEoFN1k8927y7OfADyUaYqdBbwQiKR4OiRZ+nry4KUTM9cZWIiT6Hgv7Kquf2O7Vvp2vU48wvLzM0vFRX1Ib++vl633rEZ4MjwYYaGcvbvA0ODAIyPT3jeU4389m1byfbsAWB/rg+ApeXbvuRrGdkP9ptLHRZZb6Ohv78XgPUvv0X7aqw41tfrKS+EoLPTTb6nu4vBgV5UJQ2AqioMHx4kN5CtuF9Kyb8hyDu5OTtJtgfElQVE0lGNeNjRnvmygHfp8iwLC7fYn+tDVRU0zWBm9neWlv92yRVnXsOsf+bjzwLT0zMcODCI+saIPTZ1ZaZCrlaqs9b88OFBZmZ/Y2n5tlvzKm6vqOma+nllgdhiwMRkHikl/X1ZhBBMX7nKxMQFl0zQPL+0fJvrf/wVmHy6o6NuvWMzQKFgcu78JOfOT1a9HrbImb12wyVXjbyqpOmIQB42qQ6IWuF5kk9HIw8xZgEvNAv5TcsCTjSCvKIqdHREXrnxZwEhBE/37eXy9DX7d2dG5cXn97N9q2c/IhDmFlc4dSaPoiqk6yTf0L2ARb43u4ddTz7mmnkZw2qSyEjk/RDLE/f1d5Pt2Q3AwaF9qKrC/MIyAGPfXwJA1wyMgBubijUfMdX5IRYD/DI1y+raHQ4O7WMy/zNrd++6rkclHzXV+SF0R8gLf95cQFWUCvInjg2wc1tlQ3bx1qrtHSPHc3acsNY7xEu+oR0ha83PLy67xnXNwDSrP9apjTNOyNKVBs98fFnAK9VZbm/Npp/bnzqTb7jbN2QvIIQg05khUdaLjrLmFSWWPB8YdadBi3wyZvLp9H3yPXu7SCaTFffGiboN0Gjye5/axe6uJxga7G+oEereC5ST1/Sg5Cs7OarqJg9w/cZN/llZZerKrxQK/l88dN2opW5j9wJ6wNZ1tU6O6lHbFwomP/40VbPlpesGhmNfERDxZYETxwYwTdMV7V8+cQgppZ3nAV44nqNQKHBqLG+PvXJyGAEuuZHjOftei7xzzClXME2+Pl29/1COhmQBXTNcRY418+WbHylhR9mYqirsfLSyQKq2cQo6Vg/qDoJhA54TxU5O/bbXjdprPijq1sIiP7e4AgIX+cVbq0isgFdc83OLK0ika81bck7UGrObp6XnRYW9Lrz2AkpZQaaXJt36OhxuYxOtyDF0A90j4L391pu++pbB3gtEygKbSb78I2lE2K7jd0ZIQqVFjXvNeUACiqdEysoJ2wNi6wilks15Ysw6IhMWoX0yUcXKrQw/D7gDzevuQeDQfdVLxs8AF6F4KqxV4dD9opeMtwFMRqF48qpgtpYnSFnU2XFUdtRL1jecrevyYyF4P1btNhlS8lFGER96Xa8Zz7V7cqR01vYQpdOjLYA7QJ4Eo2pKjDX0Te2/zLQ4HngDxFHSnIWq27L/a7yNNtpoIzD+A5hi72cjJ+vGAAAAAElFTkSuQmCC;labelPosition=center;align=center;fontColor=#FFFFFF;fontSize=15;direction=south;" vertex="1" parent="1">
          <mxGeometry x="452.2500000000001" y="695.5" width="50" height="50" as="geometry" />
        </mxCell>
        <mxCell id="UfV0CVszUnpOrJ8776jg-15" value="192.168.1.4/24 Gb Eth" style="shape=image;verticalLabelPosition=top;verticalAlign=bottom;imageAspect=0;aspect=fixed;image=data:image/png,iVBORw0KGgoAAAANSUhEUgAAAGQAAABkCAYAAABw4pVUAAAABmJLR0QA/wD/AP+gvaeTAAADI0lEQVR4nO3dO08UYRTG8f8xxkZLIV4TDYXRCjXGG1KYmNh5ASs/AN+AxlDR8Q22N5Qm2FoYL1hYGDtoiBrvEBovDc2x2AUp1sSB8+6emX1+1ZDAM7Pz7My7+5K8AyIiIiIiIiIiIiIiIiI9ZL3akbufA24B48Ah4Diwv1f7r+g38BH4BjwHFszsTX8PKYC7m7tPuvuy19+yu0+4e9E3cbFwdz8JzAOXSu2jT14B983sfYnwIoW4+1XgETBcIj+BdeCemT2NDg4vxN3HgSfAvujsZDaAG2b2PDI0tJDObeo1cDAyN7E14KKZvYsK3BMV1Bns5hmcMgCGgIeRA31YIcAEzRvA/8cV4E5UWEiznXfIEnAqIq+GlszsTERQ1BVylsEtA+C0u49GBEUVcjsop85CzkFUIdeCcuos5BxEFXI0KKfOQs5BVCGHg3LqLKSQqE9ZHpFTd2a26/MZ+T1EAqiQZFRIMiokGRWSjApJZm+/DwBgampqa7vVam39XHV7u538bavVin5plTXqCpmdna30+6urq4WOZOcaVcjwcLV/4c/MzBQ6kp1rVCFVVb2ieiFdIdtvI6W3M0oxl9VtUO6H3Q7qmstqIBWSjApJRoUko0KSUSHJqJBkVEgyKiQZFZKMCklGhSSTYnLxX1ZWVpibmwvNnJ6eZmRkJDRzU+MnF0ucuFJlREldyCBSIcmkHkO6qTKulBwvumn8GNJNlROcfbzopnaFNJ0KSaZ2Y0hmAzmGNJ0KSUaFJKNCkokq5GdQTp39iAiJKuRrUE6dfYkIiSrkc1BOnaUq5EVQTp09iwiJKmQhKKfOHkeEaAGzGLkWMDMzBx5EZNVU2GsPW7yxc5W8pL0G4SBZNLOxqLDoZWJP0F4mdigyN7E14IKZfYgKDP2m3ll+e5L2IsNNtwFMRJYBBaZOOis9Xwe+R2cnsg7cNLPwj/tF5rLMbBG4THvh+qZZBM6XWPcdCk4udpbfHqO9wPJSqf300BJw18zGom9T2/XygS6j/H2gyxHgGHCgV/uv6BfwifZ0yOYDXd7295BERERERERERERERERECvgD+IWeXLhsdSMAAAAASUVORK5CYII=;labelPosition=center;align=center;fontSize=15;fontColor=#FFFFFF;direction=west;" vertex="1" parent="1">
          <mxGeometry x="807.2600000000001" y="680.5" width="80" height="80" as="geometry" />
        </mxCell>
        <mxCell id="UfV0CVszUnpOrJ8776jg-16" value="" style="shape=image;verticalLabelPosition=top;verticalAlign=bottom;imageAspect=0;aspect=fixed;image=data:image/png,iVBORw0KGgoAAAANSUhEUgAAAGQAAABkCAYAAABw4pVUAAAABmJLR0QA/wD/AP+gvaeTAAAMu0lEQVR4nO2ceXhN577HPyt7ZyTDFkMNDxkcQxBiCilV1Z7LObmUai4aHSi3WqVqjCmGSAQJxamjGjVUgrqip5RDe6kphAQhmsHQOHkQBNmRZmfY+71/0FQqyI69117OXZ+/9rPWet/v793f5x3Wb7/7BRUVFRUVFRUVFRUVFRUVFRUVFRUVFRUVFRUVFRUVhSDZQtTLq4OHkEpHSkgDBLQA6tsqlj9gAm4gOI9EouFXzVd5eWlFcgYg+5fg5eP3nhDSEqCO3No14DoSY3Mupf+PXIKyGtLM228BSNMBAgO78MabAwno4I+ujg5Jsn0HMZlM5Ofncyo1jYT4LaSlnQMQIE3JuXxuiRwxyPYtNPNpOwIh4rRarZgVHiYFB/eTS7rGJMR/Q2zMMmEyCTBJb+TknEu0tqbG2gIATZu200mS2AU4z5k787kwA6BduzbUrl1bSjp6XMKOHq61mq/S63PLralpZ83Kf1cxjQZ03YIC+Wtw34rLe/f+SO/e/Xj11WAOHzkmSyiP43GxDB0Wgl+b1gJBYzt7fai145DFEAn6A4SEDKq4JoRgQUQ0A4cN5s8D+hE5f6EcoVTJk2KRJImQkEESgAQDrB2LPD1EojVAQECHypclCZPJhDCawE6eUB7Hk2IJ6FgRt5+149BaW6BTp072t24bdBqNRri5uVYsIiRJYnb4dKIWLEJjr2Xu3JnVqs9kMnHmTBrHkpI5m3aOX365gl6vp7jYgIuzMx46d5p5NcPfvx1BQYG0bdfmqXU+LRZPT8/fPtavdsNriNVXWV5eXk5CqlXs4OAgko4fqLHer8XFbN+WSEL8Nzi7ONO5Y3tatmhO48YNcXd3x9HRAYOhhLsFBeTmXiUr6wLJJ08BEsOGhfD668E4ODrWSLu0pITu3XoDGHIupzvXtA3V4bkwZO+eH4iJ+Qwvr6a8OXgAzX29q13254wsNm9JJD//DtPCJtKjZ5DZ+nIaYvUh61kwGEqIjIjm7Nl0Ph47irZtWptdR+tWLZgbPpWU1DNERS2m19GefDpxHFqtMptu25n0CRQW3uPDD8Zx88YNIiNm1MiMh+nUsT1RC2ZxPv0848dNprjYYKFILYsiDTEYShg39lMaN2rI5EnjcHa2zCjh5urKrBmTcHa0Z/KkMMrLrfqOVyMUaUjkgmjsHex5791h2NlZdprTaDSM+WAERffu8dnSlRat2xIozpA9u/dy7mw6E8b9t8XN+A2NRsOE8WP48ccDHLVxhuCPKMqQoqIiYmOWM3LEcIsNU4/Dzc2Vd94eQnRUDGVlZVbVMgdFGfLN1kR8fb1p49dSFr3Arp1w93Bj587dsuhVB8UYYjKZ2LJlGyGDrZ4uqkTImwPYHL9VVs0noRhDUlNO4+Hmird3M1l12/i1oqioiOzsi7LqPg7FGJKUdIzOXTrKritJEp07d+RY0nHZtatCMYacPZvOn5pXPyViSVq28CXtzFmbaP8RxeQPcn65QuNGjcwud+16HmvWbCAzK5u2bf0YPeodPOvozKqjUaOGbE/cZba2NVBMD7lztwAPnbvZ5VatWsuAAcGcSjlCjxe7Exe30ew6dB7u3Llzx+xy1kARhpQbjUhCoDHzRyohBFnZFxke+l84Ozvx9vChZGZdMFvfwcEBg0EZuS1FGKLVaLDTaCgtNe8FTZIkWrZoTtzajRQW3iNu7QZatfyT2folJSU4OTmZXc4aKMIQAA8PNwoLC80u99GH77N7914Cu79CcvJJRo4wfx/C3bsF1KmjjH17ipnUfXx9yLmSi6eneV9M/fp1mT1r8jNpX7uWh5dX02eqw1Iopof4+bXi0uUcm2j/nJmNf/u2NtH+I4oxpGfPHhxLOmHROoUQ/HTwKEuXfU7WY97ETSYTySdS6f5iN4tq1xTFGNLOvw2G0lIu/3LFIvVduHiZsBnz2ffDAboEdmXxkhXo9Y/OUefOZ+Lu7oavj49FdJ8VxcwhkiQRGjqEHf/4ngnjPqhxPQUFer7etJUzaemM/fgD/rP/X5EkiYyMLE6dPkuvl37f5CCEYMvWRIa9FWKJJlgExfQQgIGD+pOddZHMGiT6jEYj3+3cwyefTueFRg1J/HYL/QcEAxD35XpSTqY+ktZPPpFKcXExf/lL36qqtAmK6SEAjo6OTA2bSOyS5URHhePkVL19VGfOnCPuq69p0qQxX637Aq8HGWO9vpDZs+ZRcKeAyIiZ6HQeFWX0+kLWrU9gzryZitqBopxIHtCrV08OHzrKqi++YvzY0dg94e09L+8m6zYkkJt7lYmTxvNy75cq7mX8nMmUKTMI7NKJjz96v1IWoKysjJjYv/EffV8jMLCLVdtjLjYbssqNRnr2eI1OAUH07tWXvLwbFfemTpuIwVDCuvWbMZnEI2UNhhLiE7YRNn0enbt0ZHtiQiUzEhP/wdiPJjD8rRDeGjb4ETP+vmY9Os86jB03xrqNrAE2M8RUXk5ZaSlTImbg3zWAiIjointarZZlny0h/84dlq9cTUlJCXB/Ej585BjjJ4ShLyxiy7aNjHz/PewdHID7KZA54QuI37iZ+XOn06VzQCVNvb6QiMhYjEYTC6Mj0Gpk+XuMWShiUg/s0Y3MzGz27z9Ycc3Z2YllyxbRuEkTJk0N59CR48wOj2Lnrr1EL45g4aII6tWrV/H8v/6Vyztvj+LXonvMnzedhg0bVNwTQnAy5TTTps+jQ4f2LIldWO35SW4UMYdotFr6BP+ZhVGLCQoKxPHBpmh7BwdGjR5BevrPrFsfz4cfjWbgwP6PzCs/HTjI/HkLGTrkDfq88vvQJYQgIyObhK3b0evvMTt8Ot26d5W1beaiCEMAvHy9qdfwBRbHfMbM6VMoNxrZvm0HX3yxlr59X2XFylhcXWtXKlNuNLLqb6v59ttdhE39hAYN6nP16nWuXrtORkY2x5NP4uzkwtDQEIKD+2Fvb2+j1lUfxRgC0Lvfq6xbuYYWzX3Zvm0HOp2O1WtWVPkWfTv/NtOmzeJKTi5CCMJmzKNWrVp46HR4e3vh79+WkKEhtGjRXPZ2PAuKMsTJyQl3nQdxcRuYMmUCffq8XOVzp06fYcbU2bw+qD9/X73iiUvj5w1FGZKWepq6np6sXr28Yh55GCEEmzZtZsP6eObMmUGQQhKClkRRhty4lsdLvXpWaUZRURHz5kRy7dp1Nmz8khdeaFBFDc8/iurrLrVcuJ53/ZHrFy5eZHjoSOy0GpYuW4SLiwulD95N/t1QVA9p3b4N29ZtZsiQwfh4eQHw/a5/Eh0dgxCCW4eTOHI4CYDSktKKTdJ1POuw74edleq6q9dz/eZNhBCMHzOBWi7ORMZEMn7MBPJv5Vd6tm5dT/657zvrN7AaKMqQevXr0/O1l3l3+Che7NGdUkMpWdnZDBkRSp16nlWWKS8vZ8WC2MrXjEaGD3uP0DEjABj5yf10flpmZsXnSuUjl1qhNTXDZoZID1ZGl7Iu4PPQ0rRtgD9evt5cyrqIg6MDISNDcXiQGqkupvJybt7Mf/qDCsRmc4i9vT1Lly0i6X8PsWPTNm7ful1xr7abK/6dO9ChS4DZZpjLpcwL1K5dy6oa5mDTSb17UCDbEzfzxqD+bFufwP7d+ygxyDdZnz6ewqF9+1m5MvbpD8uEzVdZWq2WwYMHsj1xM15NmrB2+WpSkk5UmXa3FEIIjv10hIy0dNZv+JJWreX5g1B1UNzBAVmZ2UQtXELa6ap3ozdt2oSXXunFpvXxTJ01mTWfx2EH7HlolVRuNNLn5b7cu/f40/naB/izdOki3N3dntqG/zcnOezd+yNRUUvQaDTMmTuTHjZ8835SLHIaYvUhy9PT0wj3NyE8zPNyPBOA8ffh0/hIYQtjdUNSUlLKgDtGo1EqKNBXuve8HM9069at3z7mWTsOub6F8wCnUk9VXPjtSKRdW3ewf88PhIeHyRTKozwtltTU0/efg3Srx2JtAYBm3m0ngVjctWtnVq1eLoekxTCZTIS+NUJkZmRJSNLInEvn1lpTT54j/oT2SyA/OfkkO3YoI2dUXb7emEBmRpYEXJFM9+KtrSfLtou7d68b3HUNrkkw8MjhJFG3bl2ptYLW/lUhhODrjQmsWP65EAIhJGl4zuWs89bWlW0fTMHdG2nuHvUQQvQ+ePAwJ06k4OToSG03V5ycnBTxq195eTk3btzkwIFDRMyLEt99970kBEII6dMrl8+Z/+fFGiD7cdLNfNoMQ7AUGc4vtAC5Aj68cjldtnHWJud7t2zZ0rW4VPOuhF1/EH7cN0cJPwWUAXlInBWCHaYyt425uUnFtg5KRUVFRUVFRUVFRUVFRUVFRUVFRUVFRUVFRUVFRcUm/B+Rk70hDCovxgAAAABJRU5ErkJggg==;labelPosition=center;align=center;fontColor=#FFFFFF;fontSize=15;" vertex="1" parent="1">
          <mxGeometry x="629.92" y="680.5" width="75.5" height="75.5" as="geometry" />
        </mxCell>
        <mxCell id="UfV0CVszUnpOrJ8776jg-17" value="C: 2 TB&lt;br&gt;D: 500 GB&lt;br&gt;&lt;br&gt;" style="text;html=1;strokeColor=none;fillColor=none;align=center;verticalAlign=middle;whiteSpace=wrap;rounded=0;fontSize=15;fontColor=#FFFFFF;" vertex="1" parent="1">
          <mxGeometry x="624.88" y="662.75" width="85.57" height="20" as="geometry" />
        </mxCell>
        <mxCell id="UfV0CVszUnpOrJ8776jg-18" value="NO ADDRESS" style="shape=image;verticalLabelPosition=top;verticalAlign=bottom;imageAspect=0;aspect=fixed;image=data:image/png,iVBORw0KGgoAAAANSUhEUgAAAGQAAABkCAYAAABw4pVUAAAABmJLR0QA/wD/AP+gvaeTAAADI0lEQVR4nO3dO08UYRTG8f8xxkZLIV4TDYXRCjXGG1KYmNh5ASs/AN+AxlDR8Q22N5Qm2FoYL1hYGDtoiBrvEBovDc2x2AUp1sSB8+6emX1+1ZDAM7Pz7My7+5K8AyIiIiIiIiIiIiIiIiI9ZL3akbufA24B48Ah4Diwv1f7r+g38BH4BjwHFszsTX8PKYC7m7tPuvuy19+yu0+4e9E3cbFwdz8JzAOXSu2jT14B983sfYnwIoW4+1XgETBcIj+BdeCemT2NDg4vxN3HgSfAvujsZDaAG2b2PDI0tJDObeo1cDAyN7E14KKZvYsK3BMV1Bns5hmcMgCGgIeRA31YIcAEzRvA/8cV4E5UWEiznXfIEnAqIq+GlszsTERQ1BVylsEtA+C0u49GBEUVcjsop85CzkFUIdeCcuos5BxEFXI0KKfOQs5BVCGHg3LqLKSQqE9ZHpFTd2a26/MZ+T1EAqiQZFRIMiokGRWSjApJZm+/DwBgampqa7vVam39XHV7u538bavVin5plTXqCpmdna30+6urq4WOZOcaVcjwcLV/4c/MzBQ6kp1rVCFVVb2ieiFdIdtvI6W3M0oxl9VtUO6H3Q7qmstqIBWSjApJRoUko0KSUSHJqJBkVEgyKiQZFZKMCklGhSSTYnLxX1ZWVpibmwvNnJ6eZmRkJDRzU+MnF0ucuFJlREldyCBSIcmkHkO6qTKulBwvumn8GNJNlROcfbzopnaFNJ0KSaZ2Y0hmAzmGNJ0KSUaFJKNCkokq5GdQTp39iAiJKuRrUE6dfYkIiSrkc1BOnaUq5EVQTp09iwiJKmQhKKfOHkeEaAGzGLkWMDMzBx5EZNVU2GsPW7yxc5W8pL0G4SBZNLOxqLDoZWJP0F4mdigyN7E14IKZfYgKDP2m3ll+e5L2IsNNtwFMRJYBBaZOOis9Xwe+R2cnsg7cNLPwj/tF5rLMbBG4THvh+qZZBM6XWPcdCk4udpbfHqO9wPJSqf300BJw18zGom9T2/XygS6j/H2gyxHgGHCgV/uv6BfwifZ0yOYDXd7295BERERERERERERERERECvgD+IWeXLhsdSMAAAAASUVORK5CYII=;labelPosition=center;align=center;fontSize=15;fontColor=#FFFFFF;direction=west;" vertex="1" parent="1">
          <mxGeometry x="1007.0000000000001" y="680.5" width="80" height="80" as="geometry" />
        </mxCell>
        <mxCell id="UfV0CVszUnpOrJ8776jg-20" value="&lt;div style=&quot;font-size: 23px&quot;&gt;&lt;font style=&quot;font-size: 23px&quot;&gt;&lt;b&gt;&lt;br&gt;&lt;/b&gt;&lt;/font&gt;&lt;/div&gt;&lt;div style=&quot;font-size: 23px&quot;&gt;&lt;font style=&quot;font-size: 23px&quot;&gt;&lt;b&gt;&lt;br&gt;&lt;/b&gt;&lt;/font&gt;&lt;/div&gt;&lt;div style=&quot;font-size: 23px&quot;&gt;&lt;font style=&quot;font-size: 23px&quot;&gt;&lt;b&gt;&lt;br&gt;&lt;/b&gt;&lt;/font&gt;&lt;/div&gt;&lt;div style=&quot;font-size: 23px&quot;&gt;&lt;font style=&quot;font-size: 23px&quot;&gt;&lt;b&gt;C&lt;/b&gt;&lt;/font&gt;&lt;/div&gt;&lt;div style=&quot;font-size: 23px&quot;&gt;&lt;font style=&quot;font-size: 23px&quot;&gt;&lt;b&gt;O&lt;/b&gt;&lt;/font&gt;&lt;/div&gt;&lt;div style=&quot;font-size: 23px&quot;&gt;&lt;font style=&quot;font-size: 23px&quot;&gt;&lt;b&gt;N&lt;/b&gt;&lt;/font&gt;&lt;/div&gt;&lt;div style=&quot;font-size: 23px&quot;&gt;&lt;font style=&quot;font-size: 23px&quot;&gt;&lt;b&gt;T&lt;/b&gt;&lt;/font&gt;&lt;/div&gt;&lt;div style=&quot;font-size: 23px&quot;&gt;&lt;font style=&quot;font-size: 23px&quot;&gt;&lt;b&gt;A&lt;/b&gt;&lt;/font&gt;&lt;/div&gt;&lt;div style=&quot;font-size: 23px&quot;&gt;&lt;font style=&quot;font-size: 23px&quot;&gt;&lt;b&gt;B&lt;/b&gt;&lt;/font&gt;&lt;/div&gt;&lt;div style=&quot;font-size: 23px&quot;&gt;&lt;font style=&quot;font-size: 23px&quot;&gt;&lt;b&gt;I&lt;/b&gt;&lt;/font&gt;&lt;/div&gt;&lt;div style=&quot;font-size: 23px&quot;&gt;&lt;font style=&quot;font-size: 23px&quot;&gt;&lt;b&gt;L&lt;/b&gt;&lt;/font&gt;&lt;/div&gt;&lt;div style=&quot;font-size: 23px&quot;&gt;&lt;font style=&quot;font-size: 23px&quot;&gt;&lt;b&gt;I&lt;/b&gt;&lt;/font&gt;&lt;/div&gt;&lt;div style=&quot;font-size: 23px&quot;&gt;&lt;font style=&quot;font-size: 23px&quot;&gt;&lt;b&gt;D&lt;/b&gt;&lt;/font&gt;&lt;/div&gt;&lt;div style=&quot;font-size: 23px&quot;&gt;&lt;font style=&quot;font-size: 23px&quot;&gt;&lt;b&gt;A&lt;/b&gt;&lt;/font&gt;&lt;/div&gt;&lt;div style=&quot;font-size: 23px&quot;&gt;&lt;font style=&quot;font-size: 23px&quot;&gt;&lt;b&gt;D&lt;/b&gt;&lt;/font&gt;&lt;/div&gt;&lt;div style=&quot;font-size: 23px&quot;&gt;&lt;font style=&quot;font-size: 23px&quot;&gt;&lt;b&gt;&lt;br&gt;&lt;/b&gt;&lt;/font&gt;&lt;/div&gt;&lt;div style=&quot;font-size: 23px&quot;&gt;&lt;div&gt;&lt;font style=&quot;font-size: 23px&quot;&gt;&lt;b&gt;&lt;font style=&quot;font-size: 23px&quot;&gt;&lt;span style=&quot;left: 310.2px ; top: 569.542px ; font-family: sans-serif ; transform: scalex(0.874996)&quot;&gt;&lt;span style=&quot;left: 310.2px ; top: 625.117px ; font-family: sans-serif ; transform: scalex(0.887917)&quot;&gt;&lt;br&gt;&lt;/span&gt;&lt;/span&gt;&lt;/font&gt;&lt;/b&gt;&lt;/font&gt;&lt;/div&gt; &lt;/div&gt;&lt;font style=&quot;font-size: 23px&quot;&gt;&lt;b&gt;&amp;nbsp;&lt;/b&gt;&lt;/font&gt;" style="whiteSpace=wrap;html=1;rounded=1;shadow=0;strokeColor=none;strokeWidth=2;fontSize=20;align=center;arcSize=3;verticalAlign=top;spacingTop=4;fontColor=#FFFFFF;fillColor=#009BFF;glass=0;textDirection=rtl;" vertex="1" parent="1">
          <mxGeometry x="1468.62" y="114" width="82.38" height="513" as="geometry" />
        </mxCell>
        <mxCell id="UfV0CVszUnpOrJ8776jg-21" value="WEB SERVER" style="rounded=1;whiteSpace=wrap;html=1;fillColor=#EA6B66;fontColor=#FFFFFF;" vertex="1" parent="1">
          <mxGeometry x="940" y="1877" width="110" height="60" as="geometry" />
        </mxCell>
        <mxCell id="UfV0CVszUnpOrJ8776jg-22" value="USERS CONTROL" style="rounded=1;whiteSpace=wrap;html=1;fillColor=#EA6B66;fontColor=#FFFFFF;" vertex="1" parent="1">
          <mxGeometry x="1065.5" y="1877" width="134.5" height="60" as="geometry" />
        </mxCell>
      </root>
    </mxGraphModel>
  </diagram>
</mxfile>
